G75*
%MOIN*%
%OFA0B0*%
%FSLAX25Y25*%
%IPPOS*%
%LPD*%
%AMOC8*
5,1,8,0,0,1.08239X$1,22.5*
%
%ADD10C,0.01600*%
%ADD11C,0.00400*%
%ADD12C,0.00600*%
%ADD13C,0.00500*%
%ADD14C,0.00800*%
%ADD15C,0.01000*%
%ADD16C,0.00000*%
%ADD17C,0.00300*%
D10*
X0027000Y0005000D02*
X0297000Y0005000D01*
X0297000Y0215000D01*
X0027000Y0215000D01*
X0027000Y0005000D01*
D11*
X0050463Y0040200D02*
X0053533Y0040200D01*
X0054300Y0040967D01*
X0054300Y0042502D01*
X0053533Y0043269D01*
X0051998Y0043269D01*
X0051998Y0041735D01*
X0050463Y0043269D02*
X0049696Y0042502D01*
X0049696Y0040967D01*
X0050463Y0040200D01*
X0049696Y0044804D02*
X0054300Y0047873D01*
X0049696Y0047873D01*
X0049696Y0049408D02*
X0049696Y0051710D01*
X0050463Y0052477D01*
X0053533Y0052477D01*
X0054300Y0051710D01*
X0054300Y0049408D01*
X0049696Y0049408D01*
X0049696Y0044804D02*
X0054300Y0044804D01*
X0059696Y0044804D02*
X0059696Y0046339D01*
X0059696Y0045571D02*
X0064300Y0045571D01*
X0064300Y0044804D02*
X0064300Y0046339D01*
X0063533Y0047873D02*
X0060463Y0047873D01*
X0059696Y0048641D01*
X0059696Y0050175D01*
X0060463Y0050942D01*
X0061998Y0050942D02*
X0061998Y0049408D01*
X0061998Y0050942D02*
X0063533Y0050942D01*
X0064300Y0050175D01*
X0064300Y0048641D01*
X0063533Y0047873D01*
X0069696Y0047873D02*
X0072765Y0047873D01*
X0074300Y0046339D01*
X0072765Y0044804D01*
X0069696Y0044804D01*
X0069696Y0043269D02*
X0069696Y0040200D01*
X0071998Y0040200D01*
X0071231Y0041735D01*
X0071231Y0042502D01*
X0071998Y0043269D01*
X0073533Y0043269D01*
X0074300Y0042502D01*
X0074300Y0040967D01*
X0073533Y0040200D01*
X0064300Y0040967D02*
X0063533Y0040200D01*
X0064300Y0040967D02*
X0064300Y0042502D01*
X0063533Y0043269D01*
X0062765Y0043269D01*
X0061998Y0042502D01*
X0061998Y0040967D01*
X0061231Y0040200D01*
X0060463Y0040200D01*
X0059696Y0040967D01*
X0059696Y0042502D01*
X0060463Y0043269D01*
X0082200Y0065200D02*
X0082200Y0069804D01*
X0084502Y0069804D01*
X0085269Y0069037D01*
X0085269Y0067502D01*
X0084502Y0066735D01*
X0082200Y0066735D01*
X0086804Y0065200D02*
X0088339Y0065200D01*
X0087571Y0065200D02*
X0087571Y0069804D01*
X0086804Y0069804D02*
X0088339Y0069804D01*
X0089873Y0069804D02*
X0092175Y0069804D01*
X0092942Y0069037D01*
X0092942Y0067502D01*
X0092175Y0066735D01*
X0089873Y0066735D01*
X0091408Y0066735D02*
X0092942Y0065200D01*
X0094477Y0065200D02*
X0097546Y0065200D01*
X0096012Y0065200D02*
X0096012Y0069804D01*
X0094477Y0068269D01*
X0089873Y0069804D02*
X0089873Y0065200D01*
X0111696Y0072700D02*
X0116300Y0075769D01*
X0116300Y0077304D02*
X0116300Y0080373D01*
X0116300Y0078839D02*
X0111696Y0078839D01*
X0113231Y0077304D01*
X0111696Y0075769D02*
X0116300Y0072700D01*
X0097546Y0115200D02*
X0094477Y0115200D01*
X0097546Y0118269D01*
X0097546Y0119037D01*
X0096779Y0119804D01*
X0095244Y0119804D01*
X0094477Y0119037D01*
X0092942Y0119037D02*
X0092175Y0119804D01*
X0089873Y0119804D01*
X0089873Y0115200D01*
X0088339Y0115200D02*
X0086804Y0115200D01*
X0087571Y0115200D02*
X0087571Y0119804D01*
X0086804Y0119804D02*
X0088339Y0119804D01*
X0085269Y0119037D02*
X0085269Y0117502D01*
X0084502Y0116735D01*
X0082200Y0116735D01*
X0082200Y0115200D02*
X0082200Y0119804D01*
X0084502Y0119804D01*
X0085269Y0119037D01*
X0089873Y0116735D02*
X0092175Y0116735D01*
X0092942Y0117502D01*
X0092942Y0119037D01*
X0091408Y0116735D02*
X0092942Y0115200D01*
X0074300Y0125967D02*
X0073533Y0125200D01*
X0074300Y0125967D02*
X0074300Y0127502D01*
X0073533Y0128269D01*
X0071998Y0128269D01*
X0071231Y0127502D01*
X0071231Y0126735D01*
X0071998Y0125200D01*
X0069696Y0125200D01*
X0069696Y0128269D01*
X0069696Y0129804D02*
X0072765Y0129804D01*
X0074300Y0131339D01*
X0072765Y0132873D01*
X0069696Y0132873D01*
X0064300Y0133641D02*
X0064300Y0135175D01*
X0063533Y0135942D01*
X0061998Y0135942D01*
X0061998Y0134408D01*
X0060463Y0135942D02*
X0059696Y0135175D01*
X0059696Y0133641D01*
X0060463Y0132873D01*
X0063533Y0132873D01*
X0064300Y0133641D01*
X0064300Y0131339D02*
X0064300Y0129804D01*
X0064300Y0130571D02*
X0059696Y0130571D01*
X0059696Y0129804D02*
X0059696Y0131339D01*
X0060463Y0128269D02*
X0059696Y0127502D01*
X0059696Y0125967D01*
X0060463Y0125200D01*
X0061231Y0125200D01*
X0061998Y0125967D01*
X0061998Y0127502D01*
X0062765Y0128269D01*
X0063533Y0128269D01*
X0064300Y0127502D01*
X0064300Y0125967D01*
X0063533Y0125200D01*
X0054300Y0125967D02*
X0053533Y0125200D01*
X0050463Y0125200D01*
X0049696Y0125967D01*
X0049696Y0127502D01*
X0050463Y0128269D01*
X0051998Y0128269D02*
X0051998Y0126735D01*
X0051998Y0128269D02*
X0053533Y0128269D01*
X0054300Y0127502D01*
X0054300Y0125967D01*
X0054300Y0129804D02*
X0049696Y0129804D01*
X0054300Y0132873D01*
X0049696Y0132873D01*
X0049696Y0134408D02*
X0049696Y0136710D01*
X0050463Y0137477D01*
X0053533Y0137477D01*
X0054300Y0136710D01*
X0054300Y0134408D01*
X0049696Y0134408D01*
X0162200Y0140200D02*
X0162200Y0144804D01*
X0164502Y0144804D01*
X0165269Y0144037D01*
X0165269Y0142502D01*
X0164502Y0141735D01*
X0162200Y0141735D01*
X0163735Y0141735D02*
X0165269Y0140200D01*
X0166804Y0140200D02*
X0169873Y0140200D01*
X0171408Y0140200D02*
X0173710Y0140200D01*
X0174477Y0140967D01*
X0174477Y0144037D01*
X0173710Y0144804D01*
X0171408Y0144804D01*
X0171408Y0140200D01*
X0168339Y0142502D02*
X0166804Y0142502D01*
X0166804Y0144804D02*
X0166804Y0140200D01*
X0166804Y0144804D02*
X0169873Y0144804D01*
X0202200Y0144037D02*
X0202200Y0140967D01*
X0202967Y0140200D01*
X0204502Y0140200D01*
X0205269Y0140967D01*
X0205269Y0142502D01*
X0203735Y0142502D01*
X0205269Y0144037D02*
X0204502Y0144804D01*
X0202967Y0144804D01*
X0202200Y0144037D01*
X0206804Y0144804D02*
X0209106Y0144804D01*
X0209873Y0144037D01*
X0209873Y0142502D01*
X0209106Y0141735D01*
X0206804Y0141735D01*
X0208339Y0141735D02*
X0209873Y0140200D01*
X0211408Y0140200D02*
X0214477Y0140200D01*
X0216012Y0140200D02*
X0219081Y0140200D01*
X0220616Y0140200D02*
X0220616Y0144804D01*
X0223685Y0140200D01*
X0223685Y0144804D01*
X0219081Y0144804D02*
X0216012Y0144804D01*
X0216012Y0140200D01*
X0216012Y0142502D02*
X0217546Y0142502D01*
X0214477Y0144804D02*
X0211408Y0144804D01*
X0211408Y0140200D01*
X0211408Y0142502D02*
X0212942Y0142502D01*
X0206804Y0140200D02*
X0206804Y0144804D01*
X0257200Y0144804D02*
X0257200Y0140200D01*
X0259502Y0140200D01*
X0260269Y0140967D01*
X0260269Y0141735D01*
X0259502Y0142502D01*
X0257200Y0142502D01*
X0257200Y0144804D02*
X0259502Y0144804D01*
X0260269Y0144037D01*
X0260269Y0143269D01*
X0259502Y0142502D01*
X0261804Y0144804D02*
X0261804Y0140200D01*
X0264873Y0140200D01*
X0266408Y0140967D02*
X0267175Y0140200D01*
X0268710Y0140200D01*
X0269477Y0140967D01*
X0269477Y0144804D01*
X0271012Y0144804D02*
X0271012Y0140200D01*
X0274081Y0140200D01*
X0272546Y0142502D02*
X0271012Y0142502D01*
X0271012Y0144804D02*
X0274081Y0144804D01*
X0266408Y0144804D02*
X0266408Y0140967D01*
D12*
X0257000Y0120000D02*
X0257003Y0120245D01*
X0257012Y0120491D01*
X0257027Y0120736D01*
X0257048Y0120980D01*
X0257075Y0121224D01*
X0257108Y0121467D01*
X0257147Y0121710D01*
X0257192Y0121951D01*
X0257243Y0122191D01*
X0257300Y0122430D01*
X0257362Y0122667D01*
X0257431Y0122903D01*
X0257505Y0123137D01*
X0257585Y0123369D01*
X0257670Y0123599D01*
X0257761Y0123827D01*
X0257858Y0124052D01*
X0257960Y0124276D01*
X0258068Y0124496D01*
X0258181Y0124714D01*
X0258299Y0124929D01*
X0258423Y0125141D01*
X0258551Y0125350D01*
X0258685Y0125556D01*
X0258824Y0125758D01*
X0258968Y0125957D01*
X0259117Y0126152D01*
X0259270Y0126344D01*
X0259428Y0126532D01*
X0259590Y0126716D01*
X0259758Y0126895D01*
X0259929Y0127071D01*
X0260105Y0127242D01*
X0260284Y0127410D01*
X0260468Y0127572D01*
X0260656Y0127730D01*
X0260848Y0127883D01*
X0261043Y0128032D01*
X0261242Y0128176D01*
X0261444Y0128315D01*
X0261650Y0128449D01*
X0261859Y0128577D01*
X0262071Y0128701D01*
X0262286Y0128819D01*
X0262504Y0128932D01*
X0262724Y0129040D01*
X0262948Y0129142D01*
X0263173Y0129239D01*
X0263401Y0129330D01*
X0263631Y0129415D01*
X0263863Y0129495D01*
X0264097Y0129569D01*
X0264333Y0129638D01*
X0264570Y0129700D01*
X0264809Y0129757D01*
X0265049Y0129808D01*
X0265290Y0129853D01*
X0265533Y0129892D01*
X0265776Y0129925D01*
X0266020Y0129952D01*
X0266264Y0129973D01*
X0266509Y0129988D01*
X0266755Y0129997D01*
X0267000Y0130000D01*
X0267245Y0129997D01*
X0267491Y0129988D01*
X0267736Y0129973D01*
X0267980Y0129952D01*
X0268224Y0129925D01*
X0268467Y0129892D01*
X0268710Y0129853D01*
X0268951Y0129808D01*
X0269191Y0129757D01*
X0269430Y0129700D01*
X0269667Y0129638D01*
X0269903Y0129569D01*
X0270137Y0129495D01*
X0270369Y0129415D01*
X0270599Y0129330D01*
X0270827Y0129239D01*
X0271052Y0129142D01*
X0271276Y0129040D01*
X0271496Y0128932D01*
X0271714Y0128819D01*
X0271929Y0128701D01*
X0272141Y0128577D01*
X0272350Y0128449D01*
X0272556Y0128315D01*
X0272758Y0128176D01*
X0272957Y0128032D01*
X0273152Y0127883D01*
X0273344Y0127730D01*
X0273532Y0127572D01*
X0273716Y0127410D01*
X0273895Y0127242D01*
X0274071Y0127071D01*
X0274242Y0126895D01*
X0274410Y0126716D01*
X0274572Y0126532D01*
X0274730Y0126344D01*
X0274883Y0126152D01*
X0275032Y0125957D01*
X0275176Y0125758D01*
X0275315Y0125556D01*
X0275449Y0125350D01*
X0275577Y0125141D01*
X0275701Y0124929D01*
X0275819Y0124714D01*
X0275932Y0124496D01*
X0276040Y0124276D01*
X0276142Y0124052D01*
X0276239Y0123827D01*
X0276330Y0123599D01*
X0276415Y0123369D01*
X0276495Y0123137D01*
X0276569Y0122903D01*
X0276638Y0122667D01*
X0276700Y0122430D01*
X0276757Y0122191D01*
X0276808Y0121951D01*
X0276853Y0121710D01*
X0276892Y0121467D01*
X0276925Y0121224D01*
X0276952Y0120980D01*
X0276973Y0120736D01*
X0276988Y0120491D01*
X0276997Y0120245D01*
X0277000Y0120000D01*
X0276997Y0119755D01*
X0276988Y0119509D01*
X0276973Y0119264D01*
X0276952Y0119020D01*
X0276925Y0118776D01*
X0276892Y0118533D01*
X0276853Y0118290D01*
X0276808Y0118049D01*
X0276757Y0117809D01*
X0276700Y0117570D01*
X0276638Y0117333D01*
X0276569Y0117097D01*
X0276495Y0116863D01*
X0276415Y0116631D01*
X0276330Y0116401D01*
X0276239Y0116173D01*
X0276142Y0115948D01*
X0276040Y0115724D01*
X0275932Y0115504D01*
X0275819Y0115286D01*
X0275701Y0115071D01*
X0275577Y0114859D01*
X0275449Y0114650D01*
X0275315Y0114444D01*
X0275176Y0114242D01*
X0275032Y0114043D01*
X0274883Y0113848D01*
X0274730Y0113656D01*
X0274572Y0113468D01*
X0274410Y0113284D01*
X0274242Y0113105D01*
X0274071Y0112929D01*
X0273895Y0112758D01*
X0273716Y0112590D01*
X0273532Y0112428D01*
X0273344Y0112270D01*
X0273152Y0112117D01*
X0272957Y0111968D01*
X0272758Y0111824D01*
X0272556Y0111685D01*
X0272350Y0111551D01*
X0272141Y0111423D01*
X0271929Y0111299D01*
X0271714Y0111181D01*
X0271496Y0111068D01*
X0271276Y0110960D01*
X0271052Y0110858D01*
X0270827Y0110761D01*
X0270599Y0110670D01*
X0270369Y0110585D01*
X0270137Y0110505D01*
X0269903Y0110431D01*
X0269667Y0110362D01*
X0269430Y0110300D01*
X0269191Y0110243D01*
X0268951Y0110192D01*
X0268710Y0110147D01*
X0268467Y0110108D01*
X0268224Y0110075D01*
X0267980Y0110048D01*
X0267736Y0110027D01*
X0267491Y0110012D01*
X0267245Y0110003D01*
X0267000Y0110000D01*
X0266755Y0110003D01*
X0266509Y0110012D01*
X0266264Y0110027D01*
X0266020Y0110048D01*
X0265776Y0110075D01*
X0265533Y0110108D01*
X0265290Y0110147D01*
X0265049Y0110192D01*
X0264809Y0110243D01*
X0264570Y0110300D01*
X0264333Y0110362D01*
X0264097Y0110431D01*
X0263863Y0110505D01*
X0263631Y0110585D01*
X0263401Y0110670D01*
X0263173Y0110761D01*
X0262948Y0110858D01*
X0262724Y0110960D01*
X0262504Y0111068D01*
X0262286Y0111181D01*
X0262071Y0111299D01*
X0261859Y0111423D01*
X0261650Y0111551D01*
X0261444Y0111685D01*
X0261242Y0111824D01*
X0261043Y0111968D01*
X0260848Y0112117D01*
X0260656Y0112270D01*
X0260468Y0112428D01*
X0260284Y0112590D01*
X0260105Y0112758D01*
X0259929Y0112929D01*
X0259758Y0113105D01*
X0259590Y0113284D01*
X0259428Y0113468D01*
X0259270Y0113656D01*
X0259117Y0113848D01*
X0258968Y0114043D01*
X0258824Y0114242D01*
X0258685Y0114444D01*
X0258551Y0114650D01*
X0258423Y0114859D01*
X0258299Y0115071D01*
X0258181Y0115286D01*
X0258068Y0115504D01*
X0257960Y0115724D01*
X0257858Y0115948D01*
X0257761Y0116173D01*
X0257670Y0116401D01*
X0257585Y0116631D01*
X0257505Y0116863D01*
X0257431Y0117097D01*
X0257362Y0117333D01*
X0257300Y0117570D01*
X0257243Y0117809D01*
X0257192Y0118049D01*
X0257147Y0118290D01*
X0257108Y0118533D01*
X0257075Y0118776D01*
X0257048Y0119020D01*
X0257027Y0119264D01*
X0257012Y0119509D01*
X0257003Y0119755D01*
X0257000Y0120000D01*
X0207000Y0120000D02*
X0207003Y0120245D01*
X0207012Y0120491D01*
X0207027Y0120736D01*
X0207048Y0120980D01*
X0207075Y0121224D01*
X0207108Y0121467D01*
X0207147Y0121710D01*
X0207192Y0121951D01*
X0207243Y0122191D01*
X0207300Y0122430D01*
X0207362Y0122667D01*
X0207431Y0122903D01*
X0207505Y0123137D01*
X0207585Y0123369D01*
X0207670Y0123599D01*
X0207761Y0123827D01*
X0207858Y0124052D01*
X0207960Y0124276D01*
X0208068Y0124496D01*
X0208181Y0124714D01*
X0208299Y0124929D01*
X0208423Y0125141D01*
X0208551Y0125350D01*
X0208685Y0125556D01*
X0208824Y0125758D01*
X0208968Y0125957D01*
X0209117Y0126152D01*
X0209270Y0126344D01*
X0209428Y0126532D01*
X0209590Y0126716D01*
X0209758Y0126895D01*
X0209929Y0127071D01*
X0210105Y0127242D01*
X0210284Y0127410D01*
X0210468Y0127572D01*
X0210656Y0127730D01*
X0210848Y0127883D01*
X0211043Y0128032D01*
X0211242Y0128176D01*
X0211444Y0128315D01*
X0211650Y0128449D01*
X0211859Y0128577D01*
X0212071Y0128701D01*
X0212286Y0128819D01*
X0212504Y0128932D01*
X0212724Y0129040D01*
X0212948Y0129142D01*
X0213173Y0129239D01*
X0213401Y0129330D01*
X0213631Y0129415D01*
X0213863Y0129495D01*
X0214097Y0129569D01*
X0214333Y0129638D01*
X0214570Y0129700D01*
X0214809Y0129757D01*
X0215049Y0129808D01*
X0215290Y0129853D01*
X0215533Y0129892D01*
X0215776Y0129925D01*
X0216020Y0129952D01*
X0216264Y0129973D01*
X0216509Y0129988D01*
X0216755Y0129997D01*
X0217000Y0130000D01*
X0217245Y0129997D01*
X0217491Y0129988D01*
X0217736Y0129973D01*
X0217980Y0129952D01*
X0218224Y0129925D01*
X0218467Y0129892D01*
X0218710Y0129853D01*
X0218951Y0129808D01*
X0219191Y0129757D01*
X0219430Y0129700D01*
X0219667Y0129638D01*
X0219903Y0129569D01*
X0220137Y0129495D01*
X0220369Y0129415D01*
X0220599Y0129330D01*
X0220827Y0129239D01*
X0221052Y0129142D01*
X0221276Y0129040D01*
X0221496Y0128932D01*
X0221714Y0128819D01*
X0221929Y0128701D01*
X0222141Y0128577D01*
X0222350Y0128449D01*
X0222556Y0128315D01*
X0222758Y0128176D01*
X0222957Y0128032D01*
X0223152Y0127883D01*
X0223344Y0127730D01*
X0223532Y0127572D01*
X0223716Y0127410D01*
X0223895Y0127242D01*
X0224071Y0127071D01*
X0224242Y0126895D01*
X0224410Y0126716D01*
X0224572Y0126532D01*
X0224730Y0126344D01*
X0224883Y0126152D01*
X0225032Y0125957D01*
X0225176Y0125758D01*
X0225315Y0125556D01*
X0225449Y0125350D01*
X0225577Y0125141D01*
X0225701Y0124929D01*
X0225819Y0124714D01*
X0225932Y0124496D01*
X0226040Y0124276D01*
X0226142Y0124052D01*
X0226239Y0123827D01*
X0226330Y0123599D01*
X0226415Y0123369D01*
X0226495Y0123137D01*
X0226569Y0122903D01*
X0226638Y0122667D01*
X0226700Y0122430D01*
X0226757Y0122191D01*
X0226808Y0121951D01*
X0226853Y0121710D01*
X0226892Y0121467D01*
X0226925Y0121224D01*
X0226952Y0120980D01*
X0226973Y0120736D01*
X0226988Y0120491D01*
X0226997Y0120245D01*
X0227000Y0120000D01*
X0226997Y0119755D01*
X0226988Y0119509D01*
X0226973Y0119264D01*
X0226952Y0119020D01*
X0226925Y0118776D01*
X0226892Y0118533D01*
X0226853Y0118290D01*
X0226808Y0118049D01*
X0226757Y0117809D01*
X0226700Y0117570D01*
X0226638Y0117333D01*
X0226569Y0117097D01*
X0226495Y0116863D01*
X0226415Y0116631D01*
X0226330Y0116401D01*
X0226239Y0116173D01*
X0226142Y0115948D01*
X0226040Y0115724D01*
X0225932Y0115504D01*
X0225819Y0115286D01*
X0225701Y0115071D01*
X0225577Y0114859D01*
X0225449Y0114650D01*
X0225315Y0114444D01*
X0225176Y0114242D01*
X0225032Y0114043D01*
X0224883Y0113848D01*
X0224730Y0113656D01*
X0224572Y0113468D01*
X0224410Y0113284D01*
X0224242Y0113105D01*
X0224071Y0112929D01*
X0223895Y0112758D01*
X0223716Y0112590D01*
X0223532Y0112428D01*
X0223344Y0112270D01*
X0223152Y0112117D01*
X0222957Y0111968D01*
X0222758Y0111824D01*
X0222556Y0111685D01*
X0222350Y0111551D01*
X0222141Y0111423D01*
X0221929Y0111299D01*
X0221714Y0111181D01*
X0221496Y0111068D01*
X0221276Y0110960D01*
X0221052Y0110858D01*
X0220827Y0110761D01*
X0220599Y0110670D01*
X0220369Y0110585D01*
X0220137Y0110505D01*
X0219903Y0110431D01*
X0219667Y0110362D01*
X0219430Y0110300D01*
X0219191Y0110243D01*
X0218951Y0110192D01*
X0218710Y0110147D01*
X0218467Y0110108D01*
X0218224Y0110075D01*
X0217980Y0110048D01*
X0217736Y0110027D01*
X0217491Y0110012D01*
X0217245Y0110003D01*
X0217000Y0110000D01*
X0216755Y0110003D01*
X0216509Y0110012D01*
X0216264Y0110027D01*
X0216020Y0110048D01*
X0215776Y0110075D01*
X0215533Y0110108D01*
X0215290Y0110147D01*
X0215049Y0110192D01*
X0214809Y0110243D01*
X0214570Y0110300D01*
X0214333Y0110362D01*
X0214097Y0110431D01*
X0213863Y0110505D01*
X0213631Y0110585D01*
X0213401Y0110670D01*
X0213173Y0110761D01*
X0212948Y0110858D01*
X0212724Y0110960D01*
X0212504Y0111068D01*
X0212286Y0111181D01*
X0212071Y0111299D01*
X0211859Y0111423D01*
X0211650Y0111551D01*
X0211444Y0111685D01*
X0211242Y0111824D01*
X0211043Y0111968D01*
X0210848Y0112117D01*
X0210656Y0112270D01*
X0210468Y0112428D01*
X0210284Y0112590D01*
X0210105Y0112758D01*
X0209929Y0112929D01*
X0209758Y0113105D01*
X0209590Y0113284D01*
X0209428Y0113468D01*
X0209270Y0113656D01*
X0209117Y0113848D01*
X0208968Y0114043D01*
X0208824Y0114242D01*
X0208685Y0114444D01*
X0208551Y0114650D01*
X0208423Y0114859D01*
X0208299Y0115071D01*
X0208181Y0115286D01*
X0208068Y0115504D01*
X0207960Y0115724D01*
X0207858Y0115948D01*
X0207761Y0116173D01*
X0207670Y0116401D01*
X0207585Y0116631D01*
X0207505Y0116863D01*
X0207431Y0117097D01*
X0207362Y0117333D01*
X0207300Y0117570D01*
X0207243Y0117809D01*
X0207192Y0118049D01*
X0207147Y0118290D01*
X0207108Y0118533D01*
X0207075Y0118776D01*
X0207048Y0119020D01*
X0207027Y0119264D01*
X0207012Y0119509D01*
X0207003Y0119755D01*
X0207000Y0120000D01*
X0157000Y0120000D02*
X0157003Y0120245D01*
X0157012Y0120491D01*
X0157027Y0120736D01*
X0157048Y0120980D01*
X0157075Y0121224D01*
X0157108Y0121467D01*
X0157147Y0121710D01*
X0157192Y0121951D01*
X0157243Y0122191D01*
X0157300Y0122430D01*
X0157362Y0122667D01*
X0157431Y0122903D01*
X0157505Y0123137D01*
X0157585Y0123369D01*
X0157670Y0123599D01*
X0157761Y0123827D01*
X0157858Y0124052D01*
X0157960Y0124276D01*
X0158068Y0124496D01*
X0158181Y0124714D01*
X0158299Y0124929D01*
X0158423Y0125141D01*
X0158551Y0125350D01*
X0158685Y0125556D01*
X0158824Y0125758D01*
X0158968Y0125957D01*
X0159117Y0126152D01*
X0159270Y0126344D01*
X0159428Y0126532D01*
X0159590Y0126716D01*
X0159758Y0126895D01*
X0159929Y0127071D01*
X0160105Y0127242D01*
X0160284Y0127410D01*
X0160468Y0127572D01*
X0160656Y0127730D01*
X0160848Y0127883D01*
X0161043Y0128032D01*
X0161242Y0128176D01*
X0161444Y0128315D01*
X0161650Y0128449D01*
X0161859Y0128577D01*
X0162071Y0128701D01*
X0162286Y0128819D01*
X0162504Y0128932D01*
X0162724Y0129040D01*
X0162948Y0129142D01*
X0163173Y0129239D01*
X0163401Y0129330D01*
X0163631Y0129415D01*
X0163863Y0129495D01*
X0164097Y0129569D01*
X0164333Y0129638D01*
X0164570Y0129700D01*
X0164809Y0129757D01*
X0165049Y0129808D01*
X0165290Y0129853D01*
X0165533Y0129892D01*
X0165776Y0129925D01*
X0166020Y0129952D01*
X0166264Y0129973D01*
X0166509Y0129988D01*
X0166755Y0129997D01*
X0167000Y0130000D01*
X0167245Y0129997D01*
X0167491Y0129988D01*
X0167736Y0129973D01*
X0167980Y0129952D01*
X0168224Y0129925D01*
X0168467Y0129892D01*
X0168710Y0129853D01*
X0168951Y0129808D01*
X0169191Y0129757D01*
X0169430Y0129700D01*
X0169667Y0129638D01*
X0169903Y0129569D01*
X0170137Y0129495D01*
X0170369Y0129415D01*
X0170599Y0129330D01*
X0170827Y0129239D01*
X0171052Y0129142D01*
X0171276Y0129040D01*
X0171496Y0128932D01*
X0171714Y0128819D01*
X0171929Y0128701D01*
X0172141Y0128577D01*
X0172350Y0128449D01*
X0172556Y0128315D01*
X0172758Y0128176D01*
X0172957Y0128032D01*
X0173152Y0127883D01*
X0173344Y0127730D01*
X0173532Y0127572D01*
X0173716Y0127410D01*
X0173895Y0127242D01*
X0174071Y0127071D01*
X0174242Y0126895D01*
X0174410Y0126716D01*
X0174572Y0126532D01*
X0174730Y0126344D01*
X0174883Y0126152D01*
X0175032Y0125957D01*
X0175176Y0125758D01*
X0175315Y0125556D01*
X0175449Y0125350D01*
X0175577Y0125141D01*
X0175701Y0124929D01*
X0175819Y0124714D01*
X0175932Y0124496D01*
X0176040Y0124276D01*
X0176142Y0124052D01*
X0176239Y0123827D01*
X0176330Y0123599D01*
X0176415Y0123369D01*
X0176495Y0123137D01*
X0176569Y0122903D01*
X0176638Y0122667D01*
X0176700Y0122430D01*
X0176757Y0122191D01*
X0176808Y0121951D01*
X0176853Y0121710D01*
X0176892Y0121467D01*
X0176925Y0121224D01*
X0176952Y0120980D01*
X0176973Y0120736D01*
X0176988Y0120491D01*
X0176997Y0120245D01*
X0177000Y0120000D01*
X0176997Y0119755D01*
X0176988Y0119509D01*
X0176973Y0119264D01*
X0176952Y0119020D01*
X0176925Y0118776D01*
X0176892Y0118533D01*
X0176853Y0118290D01*
X0176808Y0118049D01*
X0176757Y0117809D01*
X0176700Y0117570D01*
X0176638Y0117333D01*
X0176569Y0117097D01*
X0176495Y0116863D01*
X0176415Y0116631D01*
X0176330Y0116401D01*
X0176239Y0116173D01*
X0176142Y0115948D01*
X0176040Y0115724D01*
X0175932Y0115504D01*
X0175819Y0115286D01*
X0175701Y0115071D01*
X0175577Y0114859D01*
X0175449Y0114650D01*
X0175315Y0114444D01*
X0175176Y0114242D01*
X0175032Y0114043D01*
X0174883Y0113848D01*
X0174730Y0113656D01*
X0174572Y0113468D01*
X0174410Y0113284D01*
X0174242Y0113105D01*
X0174071Y0112929D01*
X0173895Y0112758D01*
X0173716Y0112590D01*
X0173532Y0112428D01*
X0173344Y0112270D01*
X0173152Y0112117D01*
X0172957Y0111968D01*
X0172758Y0111824D01*
X0172556Y0111685D01*
X0172350Y0111551D01*
X0172141Y0111423D01*
X0171929Y0111299D01*
X0171714Y0111181D01*
X0171496Y0111068D01*
X0171276Y0110960D01*
X0171052Y0110858D01*
X0170827Y0110761D01*
X0170599Y0110670D01*
X0170369Y0110585D01*
X0170137Y0110505D01*
X0169903Y0110431D01*
X0169667Y0110362D01*
X0169430Y0110300D01*
X0169191Y0110243D01*
X0168951Y0110192D01*
X0168710Y0110147D01*
X0168467Y0110108D01*
X0168224Y0110075D01*
X0167980Y0110048D01*
X0167736Y0110027D01*
X0167491Y0110012D01*
X0167245Y0110003D01*
X0167000Y0110000D01*
X0166755Y0110003D01*
X0166509Y0110012D01*
X0166264Y0110027D01*
X0166020Y0110048D01*
X0165776Y0110075D01*
X0165533Y0110108D01*
X0165290Y0110147D01*
X0165049Y0110192D01*
X0164809Y0110243D01*
X0164570Y0110300D01*
X0164333Y0110362D01*
X0164097Y0110431D01*
X0163863Y0110505D01*
X0163631Y0110585D01*
X0163401Y0110670D01*
X0163173Y0110761D01*
X0162948Y0110858D01*
X0162724Y0110960D01*
X0162504Y0111068D01*
X0162286Y0111181D01*
X0162071Y0111299D01*
X0161859Y0111423D01*
X0161650Y0111551D01*
X0161444Y0111685D01*
X0161242Y0111824D01*
X0161043Y0111968D01*
X0160848Y0112117D01*
X0160656Y0112270D01*
X0160468Y0112428D01*
X0160284Y0112590D01*
X0160105Y0112758D01*
X0159929Y0112929D01*
X0159758Y0113105D01*
X0159590Y0113284D01*
X0159428Y0113468D01*
X0159270Y0113656D01*
X0159117Y0113848D01*
X0158968Y0114043D01*
X0158824Y0114242D01*
X0158685Y0114444D01*
X0158551Y0114650D01*
X0158423Y0114859D01*
X0158299Y0115071D01*
X0158181Y0115286D01*
X0158068Y0115504D01*
X0157960Y0115724D01*
X0157858Y0115948D01*
X0157761Y0116173D01*
X0157670Y0116401D01*
X0157585Y0116631D01*
X0157505Y0116863D01*
X0157431Y0117097D01*
X0157362Y0117333D01*
X0157300Y0117570D01*
X0157243Y0117809D01*
X0157192Y0118049D01*
X0157147Y0118290D01*
X0157108Y0118533D01*
X0157075Y0118776D01*
X0157048Y0119020D01*
X0157027Y0119264D01*
X0157012Y0119509D01*
X0157003Y0119755D01*
X0157000Y0120000D01*
X0149879Y0101705D02*
X0147744Y0101705D01*
X0146676Y0100638D01*
X0146676Y0099570D01*
X0147744Y0098503D01*
X0149879Y0098503D01*
X0150946Y0097435D01*
X0150946Y0096368D01*
X0149879Y0095300D01*
X0147744Y0095300D01*
X0146676Y0096368D01*
X0146676Y0097435D01*
X0147744Y0098503D01*
X0149879Y0098503D02*
X0150946Y0099570D01*
X0150946Y0100638D01*
X0149879Y0101705D01*
X0144501Y0100638D02*
X0143433Y0101705D01*
X0141298Y0101705D01*
X0140230Y0100638D01*
X0140230Y0099570D01*
X0141298Y0098503D01*
X0143433Y0098503D01*
X0144501Y0097435D01*
X0144501Y0096368D01*
X0143433Y0095300D01*
X0141298Y0095300D01*
X0140230Y0096368D01*
X0131623Y0095300D02*
X0130556Y0096368D01*
X0130556Y0100638D01*
X0131623Y0099570D02*
X0129488Y0099570D01*
X0127313Y0099570D02*
X0124110Y0099570D01*
X0123042Y0098503D01*
X0124110Y0097435D01*
X0126245Y0097435D01*
X0127313Y0096368D01*
X0126245Y0095300D01*
X0123042Y0095300D01*
X0120867Y0097435D02*
X0116597Y0097435D01*
X0116597Y0096368D02*
X0116597Y0098503D01*
X0117665Y0099570D01*
X0119800Y0099570D01*
X0120867Y0098503D01*
X0120867Y0097435D01*
X0119800Y0095300D02*
X0117665Y0095300D01*
X0116597Y0096368D01*
X0114435Y0095300D02*
X0113368Y0096368D01*
X0113368Y0100638D01*
X0114435Y0099570D02*
X0112300Y0099570D01*
X0077000Y0112500D02*
X0074500Y0110000D01*
X0069500Y0110000D01*
X0067000Y0112500D01*
X0064500Y0110000D01*
X0059500Y0110000D01*
X0057000Y0112500D01*
X0054500Y0110000D01*
X0049500Y0110000D01*
X0047000Y0112500D01*
X0047000Y0117500D01*
X0049500Y0120000D01*
X0054500Y0120000D01*
X0057000Y0117500D01*
X0059500Y0120000D01*
X0064500Y0120000D01*
X0067000Y0117500D01*
X0069500Y0120000D01*
X0074500Y0120000D01*
X0077000Y0117500D01*
X0077000Y0112500D01*
X0067000Y0112500D02*
X0067000Y0117500D01*
X0057000Y0117500D02*
X0057000Y0112500D01*
X0054500Y0070000D02*
X0049500Y0070000D01*
X0047000Y0067500D01*
X0047000Y0062500D01*
X0049500Y0060000D01*
X0054500Y0060000D01*
X0057000Y0062500D01*
X0057000Y0067500D01*
X0054500Y0070000D01*
X0057000Y0067500D02*
X0059500Y0070000D01*
X0064500Y0070000D01*
X0067000Y0067500D01*
X0069500Y0070000D01*
X0074500Y0070000D01*
X0077000Y0067500D01*
X0077000Y0062500D01*
X0074500Y0060000D01*
X0069500Y0060000D01*
X0067000Y0062500D01*
X0064500Y0060000D01*
X0059500Y0060000D01*
X0057000Y0062500D01*
X0067000Y0062500D02*
X0067000Y0067500D01*
X0041948Y0178165D02*
X0040881Y0178165D01*
X0041948Y0178165D02*
X0043016Y0179232D01*
X0043016Y0184570D01*
X0045191Y0184570D02*
X0046259Y0184570D01*
X0047326Y0183503D01*
X0048394Y0184570D01*
X0049461Y0183503D01*
X0049461Y0180300D01*
X0047326Y0180300D02*
X0047326Y0183503D01*
X0045191Y0184570D02*
X0045191Y0180300D01*
X0043016Y0180300D02*
X0039813Y0180300D01*
X0038745Y0181368D01*
X0038745Y0184570D01*
X0036570Y0183503D02*
X0034435Y0183503D01*
X0036570Y0183503D02*
X0036570Y0181368D01*
X0035503Y0180300D01*
X0033368Y0180300D01*
X0032300Y0181368D01*
X0032300Y0185638D01*
X0033368Y0186705D01*
X0035503Y0186705D01*
X0036570Y0185638D01*
X0035503Y0190800D02*
X0036570Y0191868D01*
X0036570Y0196138D01*
X0035503Y0197205D01*
X0033368Y0197205D01*
X0032300Y0196138D01*
X0032300Y0191868D01*
X0033368Y0190800D01*
X0035503Y0190800D01*
X0038745Y0190800D02*
X0038745Y0195070D01*
X0038745Y0192935D02*
X0040881Y0195070D01*
X0041948Y0195070D01*
X0044117Y0194003D02*
X0044117Y0191868D01*
X0045184Y0190800D01*
X0047319Y0190800D01*
X0048387Y0192935D02*
X0044117Y0192935D01*
X0044117Y0194003D02*
X0045184Y0195070D01*
X0047319Y0195070D01*
X0048387Y0194003D01*
X0048387Y0192935D01*
X0050562Y0190800D02*
X0050562Y0195070D01*
X0053765Y0195070D01*
X0054833Y0194003D01*
X0054833Y0190800D01*
X0054839Y0186705D02*
X0052704Y0186705D01*
X0051636Y0185638D01*
X0051636Y0184570D01*
X0052704Y0183503D01*
X0054839Y0183503D01*
X0055907Y0182435D01*
X0055907Y0181368D01*
X0054839Y0180300D01*
X0052704Y0180300D01*
X0051636Y0181368D01*
X0055907Y0185638D02*
X0054839Y0186705D01*
X0058082Y0186705D02*
X0058082Y0180300D01*
X0058082Y0183503D02*
X0059150Y0184570D01*
X0061285Y0184570D01*
X0062352Y0183503D01*
X0062352Y0180300D01*
X0064527Y0180300D02*
X0066663Y0180300D01*
X0065595Y0180300D02*
X0065595Y0184570D01*
X0064527Y0184570D01*
X0065595Y0186705D02*
X0065595Y0187773D01*
X0068824Y0183503D02*
X0069892Y0184570D01*
X0072027Y0184570D01*
X0073095Y0183503D01*
X0073095Y0182435D01*
X0068824Y0182435D01*
X0068824Y0181368D02*
X0068824Y0183503D01*
X0068824Y0181368D02*
X0069892Y0180300D01*
X0072027Y0180300D01*
X0075270Y0180300D02*
X0077405Y0180300D01*
X0076338Y0180300D02*
X0076338Y0186705D01*
X0075270Y0186705D01*
X0079567Y0183503D02*
X0080635Y0184570D01*
X0083837Y0184570D01*
X0083837Y0186705D02*
X0083837Y0180300D01*
X0080635Y0180300D01*
X0079567Y0181368D01*
X0079567Y0183503D01*
X0080615Y0190800D02*
X0077412Y0190800D01*
X0076344Y0191868D01*
X0076344Y0194003D01*
X0077412Y0195070D01*
X0080615Y0195070D01*
X0080615Y0197205D02*
X0080615Y0190800D01*
X0082790Y0191868D02*
X0082790Y0194003D01*
X0083857Y0195070D01*
X0085992Y0195070D01*
X0087060Y0194003D01*
X0087060Y0192935D01*
X0082790Y0192935D01*
X0082790Y0191868D02*
X0083857Y0190800D01*
X0085992Y0190800D01*
X0089235Y0190800D02*
X0089235Y0195070D01*
X0089235Y0192935D02*
X0091370Y0195070D01*
X0092438Y0195070D01*
X0094606Y0195070D02*
X0094606Y0190800D01*
X0096742Y0190800D02*
X0096742Y0194003D01*
X0097809Y0195070D01*
X0098877Y0194003D01*
X0098877Y0190800D01*
X0101052Y0191868D02*
X0102120Y0192935D01*
X0105322Y0192935D01*
X0105322Y0194003D02*
X0105322Y0190800D01*
X0102120Y0190800D01*
X0101052Y0191868D01*
X0102120Y0195070D02*
X0104255Y0195070D01*
X0105322Y0194003D01*
X0107497Y0195070D02*
X0107497Y0190800D01*
X0107497Y0195070D02*
X0110700Y0195070D01*
X0111768Y0194003D01*
X0111768Y0190800D01*
X0106397Y0185638D02*
X0105329Y0186705D01*
X0103194Y0186705D01*
X0102126Y0185638D01*
X0102126Y0181368D01*
X0106397Y0185638D01*
X0106397Y0181368D01*
X0105329Y0180300D01*
X0103194Y0180300D01*
X0102126Y0181368D01*
X0099971Y0181368D02*
X0099971Y0180300D01*
X0098903Y0180300D01*
X0098903Y0181368D01*
X0099971Y0181368D01*
X0096728Y0180300D02*
X0092458Y0180300D01*
X0096728Y0184570D01*
X0096728Y0185638D01*
X0095661Y0186705D01*
X0093526Y0186705D01*
X0092458Y0185638D01*
X0096742Y0194003D02*
X0095674Y0195070D01*
X0094606Y0195070D01*
X0074169Y0194003D02*
X0074169Y0192935D01*
X0069899Y0192935D01*
X0069899Y0191868D02*
X0069899Y0194003D01*
X0070966Y0195070D01*
X0073101Y0195070D01*
X0074169Y0194003D01*
X0073101Y0190800D02*
X0070966Y0190800D01*
X0069899Y0191868D01*
X0067724Y0190800D02*
X0063453Y0190800D01*
X0063453Y0197205D01*
D13*
X0179750Y0126854D02*
X0179750Y0122350D01*
X0182753Y0122350D02*
X0182753Y0126854D01*
X0181251Y0125353D01*
X0179750Y0126854D01*
X0184354Y0126103D02*
X0184354Y0123101D01*
X0185105Y0122350D01*
X0186606Y0122350D01*
X0187356Y0123101D01*
X0187356Y0126103D01*
X0186606Y0126854D01*
X0185105Y0126854D01*
X0184354Y0126103D01*
X0188958Y0126854D02*
X0188958Y0123851D01*
X0190459Y0122350D01*
X0191960Y0123851D01*
X0191960Y0126854D01*
X0193562Y0126854D02*
X0193562Y0122350D01*
X0196564Y0122350D01*
X0198166Y0122350D02*
X0201168Y0122350D01*
X0202770Y0122350D02*
X0205022Y0122350D01*
X0205772Y0123101D01*
X0205772Y0126103D01*
X0205022Y0126854D01*
X0202770Y0126854D01*
X0202770Y0122350D01*
X0199667Y0124602D02*
X0198166Y0124602D01*
X0198166Y0126854D02*
X0198166Y0122350D01*
X0198166Y0126854D02*
X0201168Y0126854D01*
X0207374Y0126103D02*
X0208124Y0126854D01*
X0209625Y0126854D01*
X0210376Y0126103D01*
X0210376Y0125353D01*
X0207374Y0122350D01*
X0210376Y0122350D01*
X0229750Y0122350D02*
X0229750Y0126854D01*
X0231251Y0125353D01*
X0232753Y0126854D01*
X0232753Y0122350D01*
X0234354Y0123101D02*
X0235105Y0122350D01*
X0236606Y0122350D01*
X0237356Y0123101D01*
X0237356Y0126103D01*
X0236606Y0126854D01*
X0235105Y0126854D01*
X0234354Y0126103D01*
X0234354Y0123101D01*
X0238958Y0123851D02*
X0240459Y0122350D01*
X0241960Y0123851D01*
X0241960Y0126854D01*
X0243562Y0126854D02*
X0243562Y0122350D01*
X0246564Y0122350D01*
X0248166Y0122350D02*
X0251168Y0122350D01*
X0252770Y0122350D02*
X0255022Y0122350D01*
X0255772Y0123101D01*
X0255772Y0126103D01*
X0255022Y0126854D01*
X0252770Y0126854D01*
X0252770Y0122350D01*
X0249667Y0124602D02*
X0248166Y0124602D01*
X0248166Y0126854D02*
X0248166Y0122350D01*
X0248166Y0126854D02*
X0251168Y0126854D01*
X0257374Y0125353D02*
X0258875Y0126854D01*
X0258875Y0122350D01*
X0257374Y0122350D02*
X0260376Y0122350D01*
X0279750Y0123101D02*
X0280501Y0122350D01*
X0282002Y0122350D01*
X0282753Y0123101D01*
X0282753Y0123851D01*
X0282002Y0124602D01*
X0280501Y0124602D01*
X0279750Y0125353D01*
X0279750Y0126103D01*
X0280501Y0126854D01*
X0282002Y0126854D01*
X0282753Y0126103D01*
X0284354Y0126854D02*
X0287356Y0126854D01*
X0285855Y0126854D02*
X0285855Y0122350D01*
X0288958Y0122350D02*
X0288958Y0125353D01*
X0290459Y0126854D01*
X0291960Y0125353D01*
X0291960Y0122350D01*
X0291960Y0124602D02*
X0288958Y0124602D01*
X0293562Y0126854D02*
X0296564Y0126854D01*
X0295063Y0126854D02*
X0295063Y0122350D01*
X0298166Y0123101D02*
X0298916Y0122350D01*
X0300418Y0122350D01*
X0301168Y0123101D01*
X0301168Y0126854D01*
X0302770Y0126103D02*
X0302770Y0125353D01*
X0303520Y0124602D01*
X0305022Y0124602D01*
X0305772Y0123851D01*
X0305772Y0123101D01*
X0305022Y0122350D01*
X0303520Y0122350D01*
X0302770Y0123101D01*
X0298166Y0123101D02*
X0298166Y0126854D01*
X0302770Y0126103D02*
X0303520Y0126854D01*
X0305022Y0126854D01*
X0305772Y0126103D01*
X0307374Y0126854D02*
X0307374Y0122350D01*
X0310376Y0122350D01*
X0311977Y0122350D02*
X0314980Y0122350D01*
X0316581Y0122350D02*
X0318833Y0122350D01*
X0319584Y0123101D01*
X0319584Y0126103D01*
X0318833Y0126854D01*
X0316581Y0126854D01*
X0316581Y0122350D01*
X0313479Y0124602D02*
X0311977Y0124602D01*
X0311977Y0126854D02*
X0311977Y0122350D01*
X0311977Y0126854D02*
X0314980Y0126854D01*
X0282000Y0076605D02*
X0282450Y0076155D01*
X0282450Y0075254D01*
X0282000Y0074803D01*
X0282450Y0073659D02*
X0281549Y0072758D01*
X0281549Y0073208D02*
X0281549Y0071857D01*
X0282450Y0071857D02*
X0279748Y0071857D01*
X0279748Y0073208D01*
X0280198Y0073659D01*
X0281099Y0073659D01*
X0281549Y0073208D01*
X0280198Y0074803D02*
X0279748Y0075254D01*
X0279748Y0076155D01*
X0280198Y0076605D01*
X0280648Y0076605D01*
X0281099Y0076155D01*
X0281549Y0076605D01*
X0282000Y0076605D01*
X0281099Y0076155D02*
X0281099Y0075704D01*
X0273450Y0072655D02*
X0273450Y0071754D01*
X0273000Y0071303D01*
X0271198Y0073105D01*
X0273000Y0073105D01*
X0273450Y0072655D01*
X0273000Y0071303D02*
X0271198Y0071303D01*
X0270748Y0071754D01*
X0270748Y0072655D01*
X0271198Y0073105D01*
X0271198Y0070159D02*
X0271648Y0070159D01*
X0272099Y0069708D01*
X0272549Y0070159D01*
X0273000Y0070159D01*
X0273450Y0069708D01*
X0273450Y0068807D01*
X0273000Y0068357D01*
X0273000Y0067212D02*
X0273450Y0066762D01*
X0273450Y0065861D01*
X0273000Y0065410D01*
X0272099Y0066311D02*
X0272099Y0066762D01*
X0272549Y0067212D01*
X0273000Y0067212D01*
X0272099Y0066762D02*
X0271648Y0067212D01*
X0271198Y0067212D01*
X0270748Y0066762D01*
X0270748Y0065861D01*
X0271198Y0065410D01*
X0271198Y0068357D02*
X0270748Y0068807D01*
X0270748Y0069708D01*
X0271198Y0070159D01*
X0272099Y0069708D02*
X0272099Y0069258D01*
X0232450Y0071857D02*
X0229748Y0071857D01*
X0229748Y0073208D01*
X0230198Y0073659D01*
X0231099Y0073659D01*
X0231549Y0073208D01*
X0231549Y0071857D01*
X0231549Y0072758D02*
X0232450Y0073659D01*
X0232450Y0074803D02*
X0230648Y0076605D01*
X0230198Y0076605D01*
X0229748Y0076155D01*
X0229748Y0075254D01*
X0230198Y0074803D01*
X0232450Y0074803D02*
X0232450Y0076605D01*
X0223450Y0072655D02*
X0223450Y0071754D01*
X0223000Y0071303D01*
X0221198Y0073105D01*
X0223000Y0073105D01*
X0223450Y0072655D01*
X0223000Y0071303D02*
X0221198Y0071303D01*
X0220748Y0071754D01*
X0220748Y0072655D01*
X0221198Y0073105D01*
X0221198Y0070159D02*
X0221648Y0070159D01*
X0222099Y0069708D01*
X0222549Y0070159D01*
X0223000Y0070159D01*
X0223450Y0069708D01*
X0223450Y0068807D01*
X0223000Y0068357D01*
X0223000Y0067212D02*
X0223450Y0066762D01*
X0223450Y0065861D01*
X0223000Y0065410D01*
X0222099Y0066311D02*
X0222099Y0066762D01*
X0222549Y0067212D01*
X0223000Y0067212D01*
X0222099Y0066762D02*
X0221648Y0067212D01*
X0221198Y0067212D01*
X0220748Y0066762D01*
X0220748Y0065861D01*
X0221198Y0065410D01*
X0221198Y0068357D02*
X0220748Y0068807D01*
X0220748Y0069708D01*
X0221198Y0070159D01*
X0222099Y0069708D02*
X0222099Y0069258D01*
X0182450Y0071857D02*
X0179748Y0071857D01*
X0179748Y0073208D01*
X0180198Y0073659D01*
X0181099Y0073659D01*
X0181549Y0073208D01*
X0181549Y0071857D01*
X0181549Y0072758D02*
X0182450Y0073659D01*
X0182450Y0074803D02*
X0182450Y0076605D01*
X0182450Y0075704D02*
X0179748Y0075704D01*
X0180648Y0074803D01*
X0173450Y0072655D02*
X0173450Y0071754D01*
X0173000Y0071303D01*
X0171198Y0073105D01*
X0173000Y0073105D01*
X0173450Y0072655D01*
X0173000Y0071303D02*
X0171198Y0071303D01*
X0170748Y0071754D01*
X0170748Y0072655D01*
X0171198Y0073105D01*
X0171198Y0070159D02*
X0171648Y0070159D01*
X0172099Y0069708D01*
X0172549Y0070159D01*
X0173000Y0070159D01*
X0173450Y0069708D01*
X0173450Y0068807D01*
X0173000Y0068357D01*
X0173000Y0067212D02*
X0173450Y0066762D01*
X0173450Y0065861D01*
X0173000Y0065410D01*
X0172099Y0066311D02*
X0172099Y0066762D01*
X0172549Y0067212D01*
X0173000Y0067212D01*
X0172099Y0066762D02*
X0171648Y0067212D01*
X0171198Y0067212D01*
X0170748Y0066762D01*
X0170748Y0065861D01*
X0171198Y0065410D01*
X0171198Y0068357D02*
X0170748Y0068807D01*
X0170748Y0069708D01*
X0171198Y0070159D01*
X0172099Y0069708D02*
X0172099Y0069258D01*
X0238958Y0123851D02*
X0238958Y0126854D01*
X0075949Y0106803D02*
X0075949Y0106053D01*
X0072946Y0103050D01*
X0075949Y0103050D01*
X0071345Y0103050D02*
X0069843Y0104551D01*
X0070594Y0104551D02*
X0068342Y0104551D01*
X0068342Y0103050D02*
X0068342Y0107554D01*
X0070594Y0107554D01*
X0071345Y0106803D01*
X0071345Y0105302D01*
X0070594Y0104551D01*
X0072946Y0106803D02*
X0073697Y0107554D01*
X0075198Y0107554D01*
X0075949Y0106803D01*
X0066774Y0107554D02*
X0065273Y0107554D01*
X0066023Y0107554D02*
X0066023Y0103050D01*
X0065273Y0103050D02*
X0066774Y0103050D01*
X0063671Y0105302D02*
X0062921Y0104551D01*
X0060669Y0104551D01*
X0060669Y0103050D02*
X0060669Y0107554D01*
X0062921Y0107554D01*
X0063671Y0106803D01*
X0063671Y0105302D01*
X0059068Y0102299D02*
X0056065Y0102299D01*
X0053713Y0104551D02*
X0051461Y0104551D01*
X0051461Y0103050D02*
X0051461Y0107554D01*
X0053713Y0107554D01*
X0054464Y0106803D01*
X0054464Y0105302D01*
X0053713Y0104551D01*
X0049109Y0103801D02*
X0049109Y0107554D01*
X0048358Y0107554D02*
X0049860Y0107554D01*
X0049109Y0103801D02*
X0048358Y0103050D01*
X0047608Y0103050D01*
X0046857Y0103801D01*
X0048358Y0057554D02*
X0049860Y0057554D01*
X0049109Y0057554D02*
X0049109Y0053801D01*
X0048358Y0053050D01*
X0047608Y0053050D01*
X0046857Y0053801D01*
X0051461Y0054551D02*
X0053713Y0054551D01*
X0054464Y0055302D01*
X0054464Y0056803D01*
X0053713Y0057554D01*
X0051461Y0057554D01*
X0051461Y0053050D01*
X0056065Y0052299D02*
X0059068Y0052299D01*
X0060669Y0053050D02*
X0060669Y0057554D01*
X0062921Y0057554D01*
X0063671Y0056803D01*
X0063671Y0055302D01*
X0062921Y0054551D01*
X0060669Y0054551D01*
X0065273Y0053050D02*
X0066774Y0053050D01*
X0066023Y0053050D02*
X0066023Y0057554D01*
X0065273Y0057554D02*
X0066774Y0057554D01*
X0068342Y0057554D02*
X0070594Y0057554D01*
X0071345Y0056803D01*
X0071345Y0055302D01*
X0070594Y0054551D01*
X0068342Y0054551D01*
X0068342Y0053050D02*
X0068342Y0057554D01*
X0069843Y0054551D02*
X0071345Y0053050D01*
X0072946Y0053050D02*
X0075949Y0053050D01*
X0074447Y0053050D02*
X0074447Y0057554D01*
X0072946Y0056053D01*
D14*
X0117551Y0072913D02*
X0117551Y0074488D01*
X0136449Y0074488D01*
X0136449Y0072913D01*
X0117551Y0072913D01*
X0117551Y0074488D02*
X0117551Y0087087D01*
X0136449Y0087087D01*
X0136449Y0074488D01*
X0167276Y0077402D02*
X0167276Y0052598D01*
X0176724Y0052598D01*
X0176724Y0077402D01*
X0167276Y0077402D01*
X0177000Y0112500D02*
X0177000Y0127500D01*
X0227000Y0127500D02*
X0227000Y0112500D01*
X0277000Y0112500D02*
X0277000Y0127500D01*
X0276724Y0077402D02*
X0267276Y0077402D01*
X0267276Y0052598D01*
X0276724Y0052598D01*
X0276724Y0077402D01*
X0226724Y0077402D02*
X0226724Y0052598D01*
X0217276Y0052598D01*
X0217276Y0077402D01*
X0226724Y0077402D01*
D15*
X0227000Y0112500D02*
X0226813Y0112257D01*
X0226621Y0112019D01*
X0226422Y0111786D01*
X0226218Y0111558D01*
X0226009Y0111335D01*
X0225794Y0111117D01*
X0225574Y0110904D01*
X0225349Y0110697D01*
X0225118Y0110495D01*
X0224883Y0110299D01*
X0224643Y0110109D01*
X0224399Y0109925D01*
X0224150Y0109747D01*
X0223896Y0109575D01*
X0223639Y0109409D01*
X0223378Y0109249D01*
X0223113Y0109096D01*
X0222844Y0108950D01*
X0222571Y0108810D01*
X0222296Y0108677D01*
X0222017Y0108551D01*
X0221735Y0108431D01*
X0221450Y0108319D01*
X0221163Y0108214D01*
X0220873Y0108115D01*
X0220581Y0108024D01*
X0220286Y0107940D01*
X0219990Y0107863D01*
X0219692Y0107793D01*
X0219392Y0107731D01*
X0219091Y0107676D01*
X0218789Y0107629D01*
X0218485Y0107589D01*
X0218181Y0107556D01*
X0217876Y0107531D01*
X0217570Y0107513D01*
X0217264Y0107503D01*
X0216958Y0107500D01*
X0216652Y0107505D01*
X0216346Y0107517D01*
X0216040Y0107537D01*
X0215736Y0107564D01*
X0215431Y0107599D01*
X0215128Y0107641D01*
X0214826Y0107690D01*
X0214525Y0107747D01*
X0214226Y0107812D01*
X0213928Y0107883D01*
X0213633Y0107962D01*
X0213339Y0108048D01*
X0213047Y0108141D01*
X0212758Y0108242D01*
X0212471Y0108349D01*
X0212187Y0108464D01*
X0211906Y0108585D01*
X0211628Y0108713D01*
X0211353Y0108848D01*
X0211082Y0108990D01*
X0210814Y0109138D01*
X0210550Y0109293D01*
X0210290Y0109454D01*
X0210034Y0109621D01*
X0209781Y0109795D01*
X0209534Y0109975D01*
X0209290Y0110161D01*
X0209052Y0110352D01*
X0208818Y0110550D01*
X0208589Y0110753D01*
X0208365Y0110962D01*
X0208146Y0111176D01*
X0207933Y0111396D01*
X0207725Y0111620D01*
X0207522Y0111850D01*
X0207326Y0112084D01*
X0207135Y0112324D01*
X0206950Y0112567D01*
X0206771Y0112816D01*
X0206598Y0113068D01*
X0206431Y0113325D01*
X0206271Y0113586D01*
X0206117Y0113851D01*
X0205970Y0114119D01*
X0205829Y0114391D01*
X0205695Y0114666D01*
X0205568Y0114945D01*
X0205447Y0115226D01*
X0205334Y0115511D01*
X0205228Y0115798D01*
X0205128Y0116087D01*
X0205036Y0116379D01*
X0204951Y0116673D01*
X0204873Y0116969D01*
X0204802Y0117267D01*
X0204739Y0117567D01*
X0204683Y0117868D01*
X0204635Y0118170D01*
X0204594Y0118473D01*
X0204560Y0118777D01*
X0204534Y0119082D01*
X0204515Y0119388D01*
X0204504Y0119694D01*
X0204500Y0120000D01*
X0204504Y0120306D01*
X0204515Y0120612D01*
X0204534Y0120918D01*
X0204560Y0121223D01*
X0204594Y0121527D01*
X0204635Y0121830D01*
X0204683Y0122132D01*
X0204739Y0122433D01*
X0204802Y0122733D01*
X0204873Y0123031D01*
X0204951Y0123327D01*
X0205036Y0123621D01*
X0205128Y0123913D01*
X0205228Y0124202D01*
X0205334Y0124489D01*
X0205447Y0124774D01*
X0205568Y0125055D01*
X0205695Y0125334D01*
X0205829Y0125609D01*
X0205970Y0125881D01*
X0206117Y0126149D01*
X0206271Y0126414D01*
X0206431Y0126675D01*
X0206598Y0126932D01*
X0206771Y0127184D01*
X0206950Y0127433D01*
X0207135Y0127676D01*
X0207326Y0127916D01*
X0207522Y0128150D01*
X0207725Y0128380D01*
X0207933Y0128604D01*
X0208146Y0128824D01*
X0208365Y0129038D01*
X0208589Y0129247D01*
X0208818Y0129450D01*
X0209052Y0129648D01*
X0209290Y0129839D01*
X0209534Y0130025D01*
X0209781Y0130205D01*
X0210034Y0130379D01*
X0210290Y0130546D01*
X0210550Y0130707D01*
X0210814Y0130862D01*
X0211082Y0131010D01*
X0211353Y0131152D01*
X0211628Y0131287D01*
X0211906Y0131415D01*
X0212187Y0131536D01*
X0212471Y0131651D01*
X0212758Y0131758D01*
X0213047Y0131859D01*
X0213339Y0131952D01*
X0213633Y0132038D01*
X0213928Y0132117D01*
X0214226Y0132188D01*
X0214525Y0132253D01*
X0214826Y0132310D01*
X0215128Y0132359D01*
X0215431Y0132401D01*
X0215736Y0132436D01*
X0216040Y0132463D01*
X0216346Y0132483D01*
X0216652Y0132495D01*
X0216958Y0132500D01*
X0217264Y0132497D01*
X0217570Y0132487D01*
X0217876Y0132469D01*
X0218181Y0132444D01*
X0218485Y0132411D01*
X0218789Y0132371D01*
X0219091Y0132324D01*
X0219392Y0132269D01*
X0219692Y0132207D01*
X0219990Y0132137D01*
X0220286Y0132060D01*
X0220581Y0131976D01*
X0220873Y0131885D01*
X0221163Y0131786D01*
X0221450Y0131681D01*
X0221735Y0131569D01*
X0222017Y0131449D01*
X0222296Y0131323D01*
X0222571Y0131190D01*
X0222844Y0131050D01*
X0223113Y0130904D01*
X0223378Y0130751D01*
X0223639Y0130591D01*
X0223896Y0130425D01*
X0224150Y0130253D01*
X0224399Y0130075D01*
X0224643Y0129891D01*
X0224883Y0129701D01*
X0225118Y0129505D01*
X0225349Y0129303D01*
X0225574Y0129096D01*
X0225794Y0128883D01*
X0226009Y0128665D01*
X0226218Y0128442D01*
X0226422Y0128214D01*
X0226621Y0127981D01*
X0226813Y0127743D01*
X0227000Y0127500D01*
X0277000Y0127500D02*
X0276813Y0127743D01*
X0276621Y0127981D01*
X0276422Y0128214D01*
X0276218Y0128442D01*
X0276009Y0128665D01*
X0275794Y0128883D01*
X0275574Y0129096D01*
X0275349Y0129303D01*
X0275118Y0129505D01*
X0274883Y0129701D01*
X0274643Y0129891D01*
X0274399Y0130075D01*
X0274150Y0130253D01*
X0273896Y0130425D01*
X0273639Y0130591D01*
X0273378Y0130751D01*
X0273113Y0130904D01*
X0272844Y0131050D01*
X0272571Y0131190D01*
X0272296Y0131323D01*
X0272017Y0131449D01*
X0271735Y0131569D01*
X0271450Y0131681D01*
X0271163Y0131786D01*
X0270873Y0131885D01*
X0270581Y0131976D01*
X0270286Y0132060D01*
X0269990Y0132137D01*
X0269692Y0132207D01*
X0269392Y0132269D01*
X0269091Y0132324D01*
X0268789Y0132371D01*
X0268485Y0132411D01*
X0268181Y0132444D01*
X0267876Y0132469D01*
X0267570Y0132487D01*
X0267264Y0132497D01*
X0266958Y0132500D01*
X0266652Y0132495D01*
X0266346Y0132483D01*
X0266040Y0132463D01*
X0265736Y0132436D01*
X0265431Y0132401D01*
X0265128Y0132359D01*
X0264826Y0132310D01*
X0264525Y0132253D01*
X0264226Y0132188D01*
X0263928Y0132117D01*
X0263633Y0132038D01*
X0263339Y0131952D01*
X0263047Y0131859D01*
X0262758Y0131758D01*
X0262471Y0131651D01*
X0262187Y0131536D01*
X0261906Y0131415D01*
X0261628Y0131287D01*
X0261353Y0131152D01*
X0261082Y0131010D01*
X0260814Y0130862D01*
X0260550Y0130707D01*
X0260290Y0130546D01*
X0260034Y0130379D01*
X0259781Y0130205D01*
X0259534Y0130025D01*
X0259290Y0129839D01*
X0259052Y0129648D01*
X0258818Y0129450D01*
X0258589Y0129247D01*
X0258365Y0129038D01*
X0258146Y0128824D01*
X0257933Y0128604D01*
X0257725Y0128380D01*
X0257522Y0128150D01*
X0257326Y0127916D01*
X0257135Y0127676D01*
X0256950Y0127433D01*
X0256771Y0127184D01*
X0256598Y0126932D01*
X0256431Y0126675D01*
X0256271Y0126414D01*
X0256117Y0126149D01*
X0255970Y0125881D01*
X0255829Y0125609D01*
X0255695Y0125334D01*
X0255568Y0125055D01*
X0255447Y0124774D01*
X0255334Y0124489D01*
X0255228Y0124202D01*
X0255128Y0123913D01*
X0255036Y0123621D01*
X0254951Y0123327D01*
X0254873Y0123031D01*
X0254802Y0122733D01*
X0254739Y0122433D01*
X0254683Y0122132D01*
X0254635Y0121830D01*
X0254594Y0121527D01*
X0254560Y0121223D01*
X0254534Y0120918D01*
X0254515Y0120612D01*
X0254504Y0120306D01*
X0254500Y0120000D01*
X0254504Y0119694D01*
X0254515Y0119388D01*
X0254534Y0119082D01*
X0254560Y0118777D01*
X0254594Y0118473D01*
X0254635Y0118170D01*
X0254683Y0117868D01*
X0254739Y0117567D01*
X0254802Y0117267D01*
X0254873Y0116969D01*
X0254951Y0116673D01*
X0255036Y0116379D01*
X0255128Y0116087D01*
X0255228Y0115798D01*
X0255334Y0115511D01*
X0255447Y0115226D01*
X0255568Y0114945D01*
X0255695Y0114666D01*
X0255829Y0114391D01*
X0255970Y0114119D01*
X0256117Y0113851D01*
X0256271Y0113586D01*
X0256431Y0113325D01*
X0256598Y0113068D01*
X0256771Y0112816D01*
X0256950Y0112567D01*
X0257135Y0112324D01*
X0257326Y0112084D01*
X0257522Y0111850D01*
X0257725Y0111620D01*
X0257933Y0111396D01*
X0258146Y0111176D01*
X0258365Y0110962D01*
X0258589Y0110753D01*
X0258818Y0110550D01*
X0259052Y0110352D01*
X0259290Y0110161D01*
X0259534Y0109975D01*
X0259781Y0109795D01*
X0260034Y0109621D01*
X0260290Y0109454D01*
X0260550Y0109293D01*
X0260814Y0109138D01*
X0261082Y0108990D01*
X0261353Y0108848D01*
X0261628Y0108713D01*
X0261906Y0108585D01*
X0262187Y0108464D01*
X0262471Y0108349D01*
X0262758Y0108242D01*
X0263047Y0108141D01*
X0263339Y0108048D01*
X0263633Y0107962D01*
X0263928Y0107883D01*
X0264226Y0107812D01*
X0264525Y0107747D01*
X0264826Y0107690D01*
X0265128Y0107641D01*
X0265431Y0107599D01*
X0265736Y0107564D01*
X0266040Y0107537D01*
X0266346Y0107517D01*
X0266652Y0107505D01*
X0266958Y0107500D01*
X0267264Y0107503D01*
X0267570Y0107513D01*
X0267876Y0107531D01*
X0268181Y0107556D01*
X0268485Y0107589D01*
X0268789Y0107629D01*
X0269091Y0107676D01*
X0269392Y0107731D01*
X0269692Y0107793D01*
X0269990Y0107863D01*
X0270286Y0107940D01*
X0270581Y0108024D01*
X0270873Y0108115D01*
X0271163Y0108214D01*
X0271450Y0108319D01*
X0271735Y0108431D01*
X0272017Y0108551D01*
X0272296Y0108677D01*
X0272571Y0108810D01*
X0272844Y0108950D01*
X0273113Y0109096D01*
X0273378Y0109249D01*
X0273639Y0109409D01*
X0273896Y0109575D01*
X0274150Y0109747D01*
X0274399Y0109925D01*
X0274643Y0110109D01*
X0274883Y0110299D01*
X0275118Y0110495D01*
X0275349Y0110697D01*
X0275574Y0110904D01*
X0275794Y0111117D01*
X0276009Y0111335D01*
X0276218Y0111558D01*
X0276422Y0111786D01*
X0276621Y0112019D01*
X0276813Y0112257D01*
X0277000Y0112500D01*
X0177000Y0112500D02*
X0176813Y0112257D01*
X0176621Y0112019D01*
X0176422Y0111786D01*
X0176218Y0111558D01*
X0176009Y0111335D01*
X0175794Y0111117D01*
X0175574Y0110904D01*
X0175349Y0110697D01*
X0175118Y0110495D01*
X0174883Y0110299D01*
X0174643Y0110109D01*
X0174399Y0109925D01*
X0174150Y0109747D01*
X0173896Y0109575D01*
X0173639Y0109409D01*
X0173378Y0109249D01*
X0173113Y0109096D01*
X0172844Y0108950D01*
X0172571Y0108810D01*
X0172296Y0108677D01*
X0172017Y0108551D01*
X0171735Y0108431D01*
X0171450Y0108319D01*
X0171163Y0108214D01*
X0170873Y0108115D01*
X0170581Y0108024D01*
X0170286Y0107940D01*
X0169990Y0107863D01*
X0169692Y0107793D01*
X0169392Y0107731D01*
X0169091Y0107676D01*
X0168789Y0107629D01*
X0168485Y0107589D01*
X0168181Y0107556D01*
X0167876Y0107531D01*
X0167570Y0107513D01*
X0167264Y0107503D01*
X0166958Y0107500D01*
X0166652Y0107505D01*
X0166346Y0107517D01*
X0166040Y0107537D01*
X0165736Y0107564D01*
X0165431Y0107599D01*
X0165128Y0107641D01*
X0164826Y0107690D01*
X0164525Y0107747D01*
X0164226Y0107812D01*
X0163928Y0107883D01*
X0163633Y0107962D01*
X0163339Y0108048D01*
X0163047Y0108141D01*
X0162758Y0108242D01*
X0162471Y0108349D01*
X0162187Y0108464D01*
X0161906Y0108585D01*
X0161628Y0108713D01*
X0161353Y0108848D01*
X0161082Y0108990D01*
X0160814Y0109138D01*
X0160550Y0109293D01*
X0160290Y0109454D01*
X0160034Y0109621D01*
X0159781Y0109795D01*
X0159534Y0109975D01*
X0159290Y0110161D01*
X0159052Y0110352D01*
X0158818Y0110550D01*
X0158589Y0110753D01*
X0158365Y0110962D01*
X0158146Y0111176D01*
X0157933Y0111396D01*
X0157725Y0111620D01*
X0157522Y0111850D01*
X0157326Y0112084D01*
X0157135Y0112324D01*
X0156950Y0112567D01*
X0156771Y0112816D01*
X0156598Y0113068D01*
X0156431Y0113325D01*
X0156271Y0113586D01*
X0156117Y0113851D01*
X0155970Y0114119D01*
X0155829Y0114391D01*
X0155695Y0114666D01*
X0155568Y0114945D01*
X0155447Y0115226D01*
X0155334Y0115511D01*
X0155228Y0115798D01*
X0155128Y0116087D01*
X0155036Y0116379D01*
X0154951Y0116673D01*
X0154873Y0116969D01*
X0154802Y0117267D01*
X0154739Y0117567D01*
X0154683Y0117868D01*
X0154635Y0118170D01*
X0154594Y0118473D01*
X0154560Y0118777D01*
X0154534Y0119082D01*
X0154515Y0119388D01*
X0154504Y0119694D01*
X0154500Y0120000D01*
X0154504Y0120306D01*
X0154515Y0120612D01*
X0154534Y0120918D01*
X0154560Y0121223D01*
X0154594Y0121527D01*
X0154635Y0121830D01*
X0154683Y0122132D01*
X0154739Y0122433D01*
X0154802Y0122733D01*
X0154873Y0123031D01*
X0154951Y0123327D01*
X0155036Y0123621D01*
X0155128Y0123913D01*
X0155228Y0124202D01*
X0155334Y0124489D01*
X0155447Y0124774D01*
X0155568Y0125055D01*
X0155695Y0125334D01*
X0155829Y0125609D01*
X0155970Y0125881D01*
X0156117Y0126149D01*
X0156271Y0126414D01*
X0156431Y0126675D01*
X0156598Y0126932D01*
X0156771Y0127184D01*
X0156950Y0127433D01*
X0157135Y0127676D01*
X0157326Y0127916D01*
X0157522Y0128150D01*
X0157725Y0128380D01*
X0157933Y0128604D01*
X0158146Y0128824D01*
X0158365Y0129038D01*
X0158589Y0129247D01*
X0158818Y0129450D01*
X0159052Y0129648D01*
X0159290Y0129839D01*
X0159534Y0130025D01*
X0159781Y0130205D01*
X0160034Y0130379D01*
X0160290Y0130546D01*
X0160550Y0130707D01*
X0160814Y0130862D01*
X0161082Y0131010D01*
X0161353Y0131152D01*
X0161628Y0131287D01*
X0161906Y0131415D01*
X0162187Y0131536D01*
X0162471Y0131651D01*
X0162758Y0131758D01*
X0163047Y0131859D01*
X0163339Y0131952D01*
X0163633Y0132038D01*
X0163928Y0132117D01*
X0164226Y0132188D01*
X0164525Y0132253D01*
X0164826Y0132310D01*
X0165128Y0132359D01*
X0165431Y0132401D01*
X0165736Y0132436D01*
X0166040Y0132463D01*
X0166346Y0132483D01*
X0166652Y0132495D01*
X0166958Y0132500D01*
X0167264Y0132497D01*
X0167570Y0132487D01*
X0167876Y0132469D01*
X0168181Y0132444D01*
X0168485Y0132411D01*
X0168789Y0132371D01*
X0169091Y0132324D01*
X0169392Y0132269D01*
X0169692Y0132207D01*
X0169990Y0132137D01*
X0170286Y0132060D01*
X0170581Y0131976D01*
X0170873Y0131885D01*
X0171163Y0131786D01*
X0171450Y0131681D01*
X0171735Y0131569D01*
X0172017Y0131449D01*
X0172296Y0131323D01*
X0172571Y0131190D01*
X0172844Y0131050D01*
X0173113Y0130904D01*
X0173378Y0130751D01*
X0173639Y0130591D01*
X0173896Y0130425D01*
X0174150Y0130253D01*
X0174399Y0130075D01*
X0174643Y0129891D01*
X0174883Y0129701D01*
X0175118Y0129505D01*
X0175349Y0129303D01*
X0175574Y0129096D01*
X0175794Y0128883D01*
X0176009Y0128665D01*
X0176218Y0128442D01*
X0176422Y0128214D01*
X0176621Y0127981D01*
X0176813Y0127743D01*
X0177000Y0127500D01*
D16*
X0027000Y0215000D02*
X0027000Y0005000D01*
X0287000Y0005000D01*
X0287000Y0015000D01*
X0297000Y0025000D01*
X0297000Y0154000D01*
X0287000Y0164000D01*
X0287000Y0209000D01*
X0281000Y0215000D01*
X0027000Y0215000D01*
X0080701Y0205000D02*
X0080703Y0205158D01*
X0080709Y0205316D01*
X0080719Y0205474D01*
X0080733Y0205632D01*
X0080751Y0205789D01*
X0080772Y0205946D01*
X0080798Y0206102D01*
X0080828Y0206258D01*
X0080861Y0206413D01*
X0080899Y0206566D01*
X0080940Y0206719D01*
X0080985Y0206871D01*
X0081034Y0207022D01*
X0081087Y0207171D01*
X0081143Y0207319D01*
X0081203Y0207465D01*
X0081267Y0207610D01*
X0081335Y0207753D01*
X0081406Y0207895D01*
X0081480Y0208035D01*
X0081558Y0208172D01*
X0081640Y0208308D01*
X0081724Y0208442D01*
X0081813Y0208573D01*
X0081904Y0208702D01*
X0081999Y0208829D01*
X0082096Y0208954D01*
X0082197Y0209076D01*
X0082301Y0209195D01*
X0082408Y0209312D01*
X0082518Y0209426D01*
X0082631Y0209537D01*
X0082746Y0209646D01*
X0082864Y0209751D01*
X0082985Y0209853D01*
X0083108Y0209953D01*
X0083234Y0210049D01*
X0083362Y0210142D01*
X0083492Y0210232D01*
X0083625Y0210318D01*
X0083760Y0210402D01*
X0083896Y0210481D01*
X0084035Y0210558D01*
X0084176Y0210630D01*
X0084318Y0210700D01*
X0084462Y0210765D01*
X0084608Y0210827D01*
X0084755Y0210885D01*
X0084904Y0210940D01*
X0085054Y0210991D01*
X0085205Y0211038D01*
X0085357Y0211081D01*
X0085510Y0211120D01*
X0085665Y0211156D01*
X0085820Y0211187D01*
X0085976Y0211215D01*
X0086132Y0211239D01*
X0086289Y0211259D01*
X0086447Y0211275D01*
X0086604Y0211287D01*
X0086763Y0211295D01*
X0086921Y0211299D01*
X0087079Y0211299D01*
X0087237Y0211295D01*
X0087396Y0211287D01*
X0087553Y0211275D01*
X0087711Y0211259D01*
X0087868Y0211239D01*
X0088024Y0211215D01*
X0088180Y0211187D01*
X0088335Y0211156D01*
X0088490Y0211120D01*
X0088643Y0211081D01*
X0088795Y0211038D01*
X0088946Y0210991D01*
X0089096Y0210940D01*
X0089245Y0210885D01*
X0089392Y0210827D01*
X0089538Y0210765D01*
X0089682Y0210700D01*
X0089824Y0210630D01*
X0089965Y0210558D01*
X0090104Y0210481D01*
X0090240Y0210402D01*
X0090375Y0210318D01*
X0090508Y0210232D01*
X0090638Y0210142D01*
X0090766Y0210049D01*
X0090892Y0209953D01*
X0091015Y0209853D01*
X0091136Y0209751D01*
X0091254Y0209646D01*
X0091369Y0209537D01*
X0091482Y0209426D01*
X0091592Y0209312D01*
X0091699Y0209195D01*
X0091803Y0209076D01*
X0091904Y0208954D01*
X0092001Y0208829D01*
X0092096Y0208702D01*
X0092187Y0208573D01*
X0092276Y0208442D01*
X0092360Y0208308D01*
X0092442Y0208172D01*
X0092520Y0208035D01*
X0092594Y0207895D01*
X0092665Y0207753D01*
X0092733Y0207610D01*
X0092797Y0207465D01*
X0092857Y0207319D01*
X0092913Y0207171D01*
X0092966Y0207022D01*
X0093015Y0206871D01*
X0093060Y0206719D01*
X0093101Y0206566D01*
X0093139Y0206413D01*
X0093172Y0206258D01*
X0093202Y0206102D01*
X0093228Y0205946D01*
X0093249Y0205789D01*
X0093267Y0205632D01*
X0093281Y0205474D01*
X0093291Y0205316D01*
X0093297Y0205158D01*
X0093299Y0205000D01*
X0093297Y0204842D01*
X0093291Y0204684D01*
X0093281Y0204526D01*
X0093267Y0204368D01*
X0093249Y0204211D01*
X0093228Y0204054D01*
X0093202Y0203898D01*
X0093172Y0203742D01*
X0093139Y0203587D01*
X0093101Y0203434D01*
X0093060Y0203281D01*
X0093015Y0203129D01*
X0092966Y0202978D01*
X0092913Y0202829D01*
X0092857Y0202681D01*
X0092797Y0202535D01*
X0092733Y0202390D01*
X0092665Y0202247D01*
X0092594Y0202105D01*
X0092520Y0201965D01*
X0092442Y0201828D01*
X0092360Y0201692D01*
X0092276Y0201558D01*
X0092187Y0201427D01*
X0092096Y0201298D01*
X0092001Y0201171D01*
X0091904Y0201046D01*
X0091803Y0200924D01*
X0091699Y0200805D01*
X0091592Y0200688D01*
X0091482Y0200574D01*
X0091369Y0200463D01*
X0091254Y0200354D01*
X0091136Y0200249D01*
X0091015Y0200147D01*
X0090892Y0200047D01*
X0090766Y0199951D01*
X0090638Y0199858D01*
X0090508Y0199768D01*
X0090375Y0199682D01*
X0090240Y0199598D01*
X0090104Y0199519D01*
X0089965Y0199442D01*
X0089824Y0199370D01*
X0089682Y0199300D01*
X0089538Y0199235D01*
X0089392Y0199173D01*
X0089245Y0199115D01*
X0089096Y0199060D01*
X0088946Y0199009D01*
X0088795Y0198962D01*
X0088643Y0198919D01*
X0088490Y0198880D01*
X0088335Y0198844D01*
X0088180Y0198813D01*
X0088024Y0198785D01*
X0087868Y0198761D01*
X0087711Y0198741D01*
X0087553Y0198725D01*
X0087396Y0198713D01*
X0087237Y0198705D01*
X0087079Y0198701D01*
X0086921Y0198701D01*
X0086763Y0198705D01*
X0086604Y0198713D01*
X0086447Y0198725D01*
X0086289Y0198741D01*
X0086132Y0198761D01*
X0085976Y0198785D01*
X0085820Y0198813D01*
X0085665Y0198844D01*
X0085510Y0198880D01*
X0085357Y0198919D01*
X0085205Y0198962D01*
X0085054Y0199009D01*
X0084904Y0199060D01*
X0084755Y0199115D01*
X0084608Y0199173D01*
X0084462Y0199235D01*
X0084318Y0199300D01*
X0084176Y0199370D01*
X0084035Y0199442D01*
X0083896Y0199519D01*
X0083760Y0199598D01*
X0083625Y0199682D01*
X0083492Y0199768D01*
X0083362Y0199858D01*
X0083234Y0199951D01*
X0083108Y0200047D01*
X0082985Y0200147D01*
X0082864Y0200249D01*
X0082746Y0200354D01*
X0082631Y0200463D01*
X0082518Y0200574D01*
X0082408Y0200688D01*
X0082301Y0200805D01*
X0082197Y0200924D01*
X0082096Y0201046D01*
X0081999Y0201171D01*
X0081904Y0201298D01*
X0081813Y0201427D01*
X0081724Y0201558D01*
X0081640Y0201692D01*
X0081558Y0201828D01*
X0081480Y0201965D01*
X0081406Y0202105D01*
X0081335Y0202247D01*
X0081267Y0202390D01*
X0081203Y0202535D01*
X0081143Y0202681D01*
X0081087Y0202829D01*
X0081034Y0202978D01*
X0080985Y0203129D01*
X0080940Y0203281D01*
X0080899Y0203434D01*
X0080861Y0203587D01*
X0080828Y0203742D01*
X0080798Y0203898D01*
X0080772Y0204054D01*
X0080751Y0204211D01*
X0080733Y0204368D01*
X0080719Y0204526D01*
X0080709Y0204684D01*
X0080703Y0204842D01*
X0080701Y0205000D01*
X0280701Y0145000D02*
X0280703Y0145158D01*
X0280709Y0145316D01*
X0280719Y0145474D01*
X0280733Y0145632D01*
X0280751Y0145789D01*
X0280772Y0145946D01*
X0280798Y0146102D01*
X0280828Y0146258D01*
X0280861Y0146413D01*
X0280899Y0146566D01*
X0280940Y0146719D01*
X0280985Y0146871D01*
X0281034Y0147022D01*
X0281087Y0147171D01*
X0281143Y0147319D01*
X0281203Y0147465D01*
X0281267Y0147610D01*
X0281335Y0147753D01*
X0281406Y0147895D01*
X0281480Y0148035D01*
X0281558Y0148172D01*
X0281640Y0148308D01*
X0281724Y0148442D01*
X0281813Y0148573D01*
X0281904Y0148702D01*
X0281999Y0148829D01*
X0282096Y0148954D01*
X0282197Y0149076D01*
X0282301Y0149195D01*
X0282408Y0149312D01*
X0282518Y0149426D01*
X0282631Y0149537D01*
X0282746Y0149646D01*
X0282864Y0149751D01*
X0282985Y0149853D01*
X0283108Y0149953D01*
X0283234Y0150049D01*
X0283362Y0150142D01*
X0283492Y0150232D01*
X0283625Y0150318D01*
X0283760Y0150402D01*
X0283896Y0150481D01*
X0284035Y0150558D01*
X0284176Y0150630D01*
X0284318Y0150700D01*
X0284462Y0150765D01*
X0284608Y0150827D01*
X0284755Y0150885D01*
X0284904Y0150940D01*
X0285054Y0150991D01*
X0285205Y0151038D01*
X0285357Y0151081D01*
X0285510Y0151120D01*
X0285665Y0151156D01*
X0285820Y0151187D01*
X0285976Y0151215D01*
X0286132Y0151239D01*
X0286289Y0151259D01*
X0286447Y0151275D01*
X0286604Y0151287D01*
X0286763Y0151295D01*
X0286921Y0151299D01*
X0287079Y0151299D01*
X0287237Y0151295D01*
X0287396Y0151287D01*
X0287553Y0151275D01*
X0287711Y0151259D01*
X0287868Y0151239D01*
X0288024Y0151215D01*
X0288180Y0151187D01*
X0288335Y0151156D01*
X0288490Y0151120D01*
X0288643Y0151081D01*
X0288795Y0151038D01*
X0288946Y0150991D01*
X0289096Y0150940D01*
X0289245Y0150885D01*
X0289392Y0150827D01*
X0289538Y0150765D01*
X0289682Y0150700D01*
X0289824Y0150630D01*
X0289965Y0150558D01*
X0290104Y0150481D01*
X0290240Y0150402D01*
X0290375Y0150318D01*
X0290508Y0150232D01*
X0290638Y0150142D01*
X0290766Y0150049D01*
X0290892Y0149953D01*
X0291015Y0149853D01*
X0291136Y0149751D01*
X0291254Y0149646D01*
X0291369Y0149537D01*
X0291482Y0149426D01*
X0291592Y0149312D01*
X0291699Y0149195D01*
X0291803Y0149076D01*
X0291904Y0148954D01*
X0292001Y0148829D01*
X0292096Y0148702D01*
X0292187Y0148573D01*
X0292276Y0148442D01*
X0292360Y0148308D01*
X0292442Y0148172D01*
X0292520Y0148035D01*
X0292594Y0147895D01*
X0292665Y0147753D01*
X0292733Y0147610D01*
X0292797Y0147465D01*
X0292857Y0147319D01*
X0292913Y0147171D01*
X0292966Y0147022D01*
X0293015Y0146871D01*
X0293060Y0146719D01*
X0293101Y0146566D01*
X0293139Y0146413D01*
X0293172Y0146258D01*
X0293202Y0146102D01*
X0293228Y0145946D01*
X0293249Y0145789D01*
X0293267Y0145632D01*
X0293281Y0145474D01*
X0293291Y0145316D01*
X0293297Y0145158D01*
X0293299Y0145000D01*
X0293297Y0144842D01*
X0293291Y0144684D01*
X0293281Y0144526D01*
X0293267Y0144368D01*
X0293249Y0144211D01*
X0293228Y0144054D01*
X0293202Y0143898D01*
X0293172Y0143742D01*
X0293139Y0143587D01*
X0293101Y0143434D01*
X0293060Y0143281D01*
X0293015Y0143129D01*
X0292966Y0142978D01*
X0292913Y0142829D01*
X0292857Y0142681D01*
X0292797Y0142535D01*
X0292733Y0142390D01*
X0292665Y0142247D01*
X0292594Y0142105D01*
X0292520Y0141965D01*
X0292442Y0141828D01*
X0292360Y0141692D01*
X0292276Y0141558D01*
X0292187Y0141427D01*
X0292096Y0141298D01*
X0292001Y0141171D01*
X0291904Y0141046D01*
X0291803Y0140924D01*
X0291699Y0140805D01*
X0291592Y0140688D01*
X0291482Y0140574D01*
X0291369Y0140463D01*
X0291254Y0140354D01*
X0291136Y0140249D01*
X0291015Y0140147D01*
X0290892Y0140047D01*
X0290766Y0139951D01*
X0290638Y0139858D01*
X0290508Y0139768D01*
X0290375Y0139682D01*
X0290240Y0139598D01*
X0290104Y0139519D01*
X0289965Y0139442D01*
X0289824Y0139370D01*
X0289682Y0139300D01*
X0289538Y0139235D01*
X0289392Y0139173D01*
X0289245Y0139115D01*
X0289096Y0139060D01*
X0288946Y0139009D01*
X0288795Y0138962D01*
X0288643Y0138919D01*
X0288490Y0138880D01*
X0288335Y0138844D01*
X0288180Y0138813D01*
X0288024Y0138785D01*
X0287868Y0138761D01*
X0287711Y0138741D01*
X0287553Y0138725D01*
X0287396Y0138713D01*
X0287237Y0138705D01*
X0287079Y0138701D01*
X0286921Y0138701D01*
X0286763Y0138705D01*
X0286604Y0138713D01*
X0286447Y0138725D01*
X0286289Y0138741D01*
X0286132Y0138761D01*
X0285976Y0138785D01*
X0285820Y0138813D01*
X0285665Y0138844D01*
X0285510Y0138880D01*
X0285357Y0138919D01*
X0285205Y0138962D01*
X0285054Y0139009D01*
X0284904Y0139060D01*
X0284755Y0139115D01*
X0284608Y0139173D01*
X0284462Y0139235D01*
X0284318Y0139300D01*
X0284176Y0139370D01*
X0284035Y0139442D01*
X0283896Y0139519D01*
X0283760Y0139598D01*
X0283625Y0139682D01*
X0283492Y0139768D01*
X0283362Y0139858D01*
X0283234Y0139951D01*
X0283108Y0140047D01*
X0282985Y0140147D01*
X0282864Y0140249D01*
X0282746Y0140354D01*
X0282631Y0140463D01*
X0282518Y0140574D01*
X0282408Y0140688D01*
X0282301Y0140805D01*
X0282197Y0140924D01*
X0282096Y0141046D01*
X0281999Y0141171D01*
X0281904Y0141298D01*
X0281813Y0141427D01*
X0281724Y0141558D01*
X0281640Y0141692D01*
X0281558Y0141828D01*
X0281480Y0141965D01*
X0281406Y0142105D01*
X0281335Y0142247D01*
X0281267Y0142390D01*
X0281203Y0142535D01*
X0281143Y0142681D01*
X0281087Y0142829D01*
X0281034Y0142978D01*
X0280985Y0143129D01*
X0280940Y0143281D01*
X0280899Y0143434D01*
X0280861Y0143587D01*
X0280828Y0143742D01*
X0280798Y0143898D01*
X0280772Y0144054D01*
X0280751Y0144211D01*
X0280733Y0144368D01*
X0280719Y0144526D01*
X0280709Y0144684D01*
X0280703Y0144842D01*
X0280701Y0145000D01*
X0075701Y0015000D02*
X0075703Y0015158D01*
X0075709Y0015316D01*
X0075719Y0015474D01*
X0075733Y0015632D01*
X0075751Y0015789D01*
X0075772Y0015946D01*
X0075798Y0016102D01*
X0075828Y0016258D01*
X0075861Y0016413D01*
X0075899Y0016566D01*
X0075940Y0016719D01*
X0075985Y0016871D01*
X0076034Y0017022D01*
X0076087Y0017171D01*
X0076143Y0017319D01*
X0076203Y0017465D01*
X0076267Y0017610D01*
X0076335Y0017753D01*
X0076406Y0017895D01*
X0076480Y0018035D01*
X0076558Y0018172D01*
X0076640Y0018308D01*
X0076724Y0018442D01*
X0076813Y0018573D01*
X0076904Y0018702D01*
X0076999Y0018829D01*
X0077096Y0018954D01*
X0077197Y0019076D01*
X0077301Y0019195D01*
X0077408Y0019312D01*
X0077518Y0019426D01*
X0077631Y0019537D01*
X0077746Y0019646D01*
X0077864Y0019751D01*
X0077985Y0019853D01*
X0078108Y0019953D01*
X0078234Y0020049D01*
X0078362Y0020142D01*
X0078492Y0020232D01*
X0078625Y0020318D01*
X0078760Y0020402D01*
X0078896Y0020481D01*
X0079035Y0020558D01*
X0079176Y0020630D01*
X0079318Y0020700D01*
X0079462Y0020765D01*
X0079608Y0020827D01*
X0079755Y0020885D01*
X0079904Y0020940D01*
X0080054Y0020991D01*
X0080205Y0021038D01*
X0080357Y0021081D01*
X0080510Y0021120D01*
X0080665Y0021156D01*
X0080820Y0021187D01*
X0080976Y0021215D01*
X0081132Y0021239D01*
X0081289Y0021259D01*
X0081447Y0021275D01*
X0081604Y0021287D01*
X0081763Y0021295D01*
X0081921Y0021299D01*
X0082079Y0021299D01*
X0082237Y0021295D01*
X0082396Y0021287D01*
X0082553Y0021275D01*
X0082711Y0021259D01*
X0082868Y0021239D01*
X0083024Y0021215D01*
X0083180Y0021187D01*
X0083335Y0021156D01*
X0083490Y0021120D01*
X0083643Y0021081D01*
X0083795Y0021038D01*
X0083946Y0020991D01*
X0084096Y0020940D01*
X0084245Y0020885D01*
X0084392Y0020827D01*
X0084538Y0020765D01*
X0084682Y0020700D01*
X0084824Y0020630D01*
X0084965Y0020558D01*
X0085104Y0020481D01*
X0085240Y0020402D01*
X0085375Y0020318D01*
X0085508Y0020232D01*
X0085638Y0020142D01*
X0085766Y0020049D01*
X0085892Y0019953D01*
X0086015Y0019853D01*
X0086136Y0019751D01*
X0086254Y0019646D01*
X0086369Y0019537D01*
X0086482Y0019426D01*
X0086592Y0019312D01*
X0086699Y0019195D01*
X0086803Y0019076D01*
X0086904Y0018954D01*
X0087001Y0018829D01*
X0087096Y0018702D01*
X0087187Y0018573D01*
X0087276Y0018442D01*
X0087360Y0018308D01*
X0087442Y0018172D01*
X0087520Y0018035D01*
X0087594Y0017895D01*
X0087665Y0017753D01*
X0087733Y0017610D01*
X0087797Y0017465D01*
X0087857Y0017319D01*
X0087913Y0017171D01*
X0087966Y0017022D01*
X0088015Y0016871D01*
X0088060Y0016719D01*
X0088101Y0016566D01*
X0088139Y0016413D01*
X0088172Y0016258D01*
X0088202Y0016102D01*
X0088228Y0015946D01*
X0088249Y0015789D01*
X0088267Y0015632D01*
X0088281Y0015474D01*
X0088291Y0015316D01*
X0088297Y0015158D01*
X0088299Y0015000D01*
X0088297Y0014842D01*
X0088291Y0014684D01*
X0088281Y0014526D01*
X0088267Y0014368D01*
X0088249Y0014211D01*
X0088228Y0014054D01*
X0088202Y0013898D01*
X0088172Y0013742D01*
X0088139Y0013587D01*
X0088101Y0013434D01*
X0088060Y0013281D01*
X0088015Y0013129D01*
X0087966Y0012978D01*
X0087913Y0012829D01*
X0087857Y0012681D01*
X0087797Y0012535D01*
X0087733Y0012390D01*
X0087665Y0012247D01*
X0087594Y0012105D01*
X0087520Y0011965D01*
X0087442Y0011828D01*
X0087360Y0011692D01*
X0087276Y0011558D01*
X0087187Y0011427D01*
X0087096Y0011298D01*
X0087001Y0011171D01*
X0086904Y0011046D01*
X0086803Y0010924D01*
X0086699Y0010805D01*
X0086592Y0010688D01*
X0086482Y0010574D01*
X0086369Y0010463D01*
X0086254Y0010354D01*
X0086136Y0010249D01*
X0086015Y0010147D01*
X0085892Y0010047D01*
X0085766Y0009951D01*
X0085638Y0009858D01*
X0085508Y0009768D01*
X0085375Y0009682D01*
X0085240Y0009598D01*
X0085104Y0009519D01*
X0084965Y0009442D01*
X0084824Y0009370D01*
X0084682Y0009300D01*
X0084538Y0009235D01*
X0084392Y0009173D01*
X0084245Y0009115D01*
X0084096Y0009060D01*
X0083946Y0009009D01*
X0083795Y0008962D01*
X0083643Y0008919D01*
X0083490Y0008880D01*
X0083335Y0008844D01*
X0083180Y0008813D01*
X0083024Y0008785D01*
X0082868Y0008761D01*
X0082711Y0008741D01*
X0082553Y0008725D01*
X0082396Y0008713D01*
X0082237Y0008705D01*
X0082079Y0008701D01*
X0081921Y0008701D01*
X0081763Y0008705D01*
X0081604Y0008713D01*
X0081447Y0008725D01*
X0081289Y0008741D01*
X0081132Y0008761D01*
X0080976Y0008785D01*
X0080820Y0008813D01*
X0080665Y0008844D01*
X0080510Y0008880D01*
X0080357Y0008919D01*
X0080205Y0008962D01*
X0080054Y0009009D01*
X0079904Y0009060D01*
X0079755Y0009115D01*
X0079608Y0009173D01*
X0079462Y0009235D01*
X0079318Y0009300D01*
X0079176Y0009370D01*
X0079035Y0009442D01*
X0078896Y0009519D01*
X0078760Y0009598D01*
X0078625Y0009682D01*
X0078492Y0009768D01*
X0078362Y0009858D01*
X0078234Y0009951D01*
X0078108Y0010047D01*
X0077985Y0010147D01*
X0077864Y0010249D01*
X0077746Y0010354D01*
X0077631Y0010463D01*
X0077518Y0010574D01*
X0077408Y0010688D01*
X0077301Y0010805D01*
X0077197Y0010924D01*
X0077096Y0011046D01*
X0076999Y0011171D01*
X0076904Y0011298D01*
X0076813Y0011427D01*
X0076724Y0011558D01*
X0076640Y0011692D01*
X0076558Y0011828D01*
X0076480Y0011965D01*
X0076406Y0012105D01*
X0076335Y0012247D01*
X0076267Y0012390D01*
X0076203Y0012535D01*
X0076143Y0012681D01*
X0076087Y0012829D01*
X0076034Y0012978D01*
X0075985Y0013129D01*
X0075940Y0013281D01*
X0075899Y0013434D01*
X0075861Y0013587D01*
X0075828Y0013742D01*
X0075798Y0013898D01*
X0075772Y0014054D01*
X0075751Y0014211D01*
X0075733Y0014368D01*
X0075719Y0014526D01*
X0075709Y0014684D01*
X0075703Y0014842D01*
X0075701Y0015000D01*
D17*
X0150110Y0020150D02*
X0150110Y0023853D01*
X0151962Y0023853D01*
X0152579Y0023236D01*
X0152579Y0022002D01*
X0151962Y0021384D01*
X0150110Y0021384D01*
X0151345Y0021384D02*
X0152579Y0020150D01*
X0153793Y0020767D02*
X0154411Y0020150D01*
X0155645Y0020150D01*
X0156262Y0020767D01*
X0156262Y0021384D01*
X0155645Y0022002D01*
X0154411Y0022002D01*
X0153793Y0022619D01*
X0153793Y0023236D01*
X0154411Y0023853D01*
X0155645Y0023853D01*
X0156262Y0023236D01*
X0157477Y0023853D02*
X0159945Y0023853D01*
X0158711Y0023853D02*
X0158711Y0020150D01*
X0163970Y0020767D02*
X0164587Y0020150D01*
X0165822Y0020150D01*
X0166439Y0020767D01*
X0166439Y0021384D01*
X0165822Y0022002D01*
X0165204Y0022002D01*
X0165822Y0022002D02*
X0166439Y0022619D01*
X0166439Y0023236D01*
X0165822Y0023853D01*
X0164587Y0023853D01*
X0163970Y0023236D01*
X0167653Y0022619D02*
X0168888Y0020150D01*
X0170122Y0022619D01*
X0174970Y0022002D02*
X0176204Y0022619D01*
X0176822Y0022619D01*
X0177439Y0022002D01*
X0177439Y0020767D01*
X0176822Y0020150D01*
X0175587Y0020150D01*
X0174970Y0020767D01*
X0174970Y0022002D02*
X0174970Y0023853D01*
X0177439Y0023853D01*
X0178653Y0022619D02*
X0179888Y0020150D01*
X0181122Y0022619D01*
X0187690Y0023236D02*
X0187690Y0020767D01*
X0188307Y0020150D01*
X0189541Y0020150D01*
X0190159Y0020767D01*
X0190159Y0022002D01*
X0188924Y0022002D01*
X0187690Y0023236D02*
X0188307Y0023853D01*
X0189541Y0023853D01*
X0190159Y0023236D01*
X0191373Y0022619D02*
X0191373Y0020150D01*
X0193842Y0020150D02*
X0193842Y0022002D01*
X0193224Y0022619D01*
X0191373Y0022619D01*
X0195056Y0022002D02*
X0195056Y0020767D01*
X0195673Y0020150D01*
X0197525Y0020150D01*
X0197525Y0023853D01*
X0197525Y0022619D02*
X0195673Y0022619D01*
X0195056Y0022002D01*
X0203470Y0021384D02*
X0204704Y0020150D01*
X0205939Y0021384D01*
X0205939Y0023853D01*
X0207153Y0022619D02*
X0207770Y0022619D01*
X0207770Y0020150D01*
X0207153Y0020150D02*
X0208388Y0020150D01*
X0209609Y0020150D02*
X0209609Y0022619D01*
X0211460Y0022619D01*
X0212077Y0022002D01*
X0212077Y0020150D01*
X0207770Y0023853D02*
X0207770Y0024470D01*
X0203470Y0023853D02*
X0203470Y0021384D01*
X0225650Y0020767D02*
X0228119Y0023236D01*
X0228119Y0020767D01*
X0227502Y0020150D01*
X0226267Y0020150D01*
X0225650Y0020767D01*
X0225650Y0023236D01*
X0226267Y0023853D01*
X0227502Y0023853D01*
X0228119Y0023236D01*
X0235650Y0022619D02*
X0236884Y0023853D01*
X0236884Y0020150D01*
X0235650Y0020150D02*
X0238119Y0020150D01*
X0245650Y0020150D02*
X0248119Y0022619D01*
X0248119Y0023236D01*
X0247502Y0023853D01*
X0246267Y0023853D01*
X0245650Y0023236D01*
X0245650Y0020150D02*
X0248119Y0020150D01*
X0255650Y0020767D02*
X0256267Y0020150D01*
X0257502Y0020150D01*
X0258119Y0020767D01*
X0258119Y0021384D01*
X0257502Y0022002D01*
X0256884Y0022002D01*
X0257502Y0022002D02*
X0258119Y0022619D01*
X0258119Y0023236D01*
X0257502Y0023853D01*
X0256267Y0023853D01*
X0255650Y0023236D01*
X0265650Y0022002D02*
X0268119Y0022002D01*
X0267502Y0023853D02*
X0265650Y0022002D01*
X0267502Y0023853D02*
X0267502Y0020150D01*
X0275650Y0020767D02*
X0276267Y0020150D01*
X0277502Y0020150D01*
X0278119Y0020767D01*
X0278119Y0022002D01*
X0277502Y0022619D01*
X0276884Y0022619D01*
X0275650Y0022002D01*
X0275650Y0023853D01*
X0278119Y0023853D01*
X0269051Y0009439D02*
X0267199Y0009439D01*
X0267199Y0006970D01*
X0265978Y0006970D02*
X0264744Y0006970D01*
X0265361Y0006970D02*
X0265361Y0010673D01*
X0264744Y0010673D02*
X0265978Y0010673D01*
X0269051Y0009439D02*
X0269668Y0008822D01*
X0269668Y0006970D01*
X0259847Y0006970D02*
X0257995Y0006970D01*
X0257378Y0007587D01*
X0257378Y0008822D01*
X0257995Y0009439D01*
X0259847Y0009439D01*
X0259847Y0006353D01*
X0259229Y0005736D01*
X0258612Y0005736D01*
X0256163Y0007587D02*
X0256163Y0008822D01*
X0255546Y0009439D01*
X0254312Y0009439D01*
X0253695Y0008822D01*
X0253695Y0007587D01*
X0254312Y0006970D01*
X0255546Y0006970D01*
X0256163Y0007587D01*
X0252474Y0006970D02*
X0251239Y0006970D01*
X0251856Y0006970D02*
X0251856Y0010673D01*
X0251239Y0010673D01*
X0249408Y0009439D02*
X0250025Y0008822D01*
X0250025Y0006970D01*
X0248173Y0006970D01*
X0247556Y0007587D01*
X0248173Y0008204D01*
X0250025Y0008204D01*
X0249408Y0009439D02*
X0248173Y0009439D01*
X0246342Y0008822D02*
X0246342Y0006970D01*
X0246342Y0008822D02*
X0245724Y0009439D01*
X0243873Y0009439D01*
X0243873Y0006970D01*
X0242659Y0006970D02*
X0242659Y0009439D01*
X0241424Y0010673D01*
X0240190Y0009439D01*
X0240190Y0006970D01*
X0240190Y0008822D02*
X0242659Y0008822D01*
X0127952Y0194916D02*
X0128569Y0195533D01*
X0128569Y0198619D01*
X0126718Y0198619D01*
X0126101Y0198002D01*
X0126101Y0196767D01*
X0126718Y0196150D01*
X0128569Y0196150D01*
X0129784Y0196150D02*
X0129784Y0198619D01*
X0131635Y0198619D01*
X0132252Y0198002D01*
X0132252Y0196150D01*
X0133467Y0196767D02*
X0133467Y0198002D01*
X0134084Y0198619D01*
X0135936Y0198619D01*
X0135936Y0199853D02*
X0135936Y0196150D01*
X0134084Y0196150D01*
X0133467Y0196767D01*
X0138284Y0196150D02*
X0140752Y0196150D01*
X0139518Y0196150D02*
X0139518Y0199853D01*
X0138284Y0198619D01*
X0141967Y0199236D02*
X0142584Y0199853D01*
X0143818Y0199853D01*
X0144436Y0199236D01*
X0144436Y0198619D01*
X0143818Y0198002D01*
X0144436Y0197384D01*
X0144436Y0196767D01*
X0143818Y0196150D01*
X0142584Y0196150D01*
X0141967Y0196767D01*
X0143201Y0198002D02*
X0143818Y0198002D01*
X0148284Y0198619D02*
X0149518Y0199853D01*
X0149518Y0196150D01*
X0148284Y0196150D02*
X0150752Y0196150D01*
X0151967Y0196150D02*
X0154436Y0198619D01*
X0154436Y0199236D01*
X0153818Y0199853D01*
X0152584Y0199853D01*
X0151967Y0199236D01*
X0151967Y0196150D02*
X0154436Y0196150D01*
X0158284Y0196150D02*
X0160752Y0196150D01*
X0161967Y0196150D02*
X0164436Y0196150D01*
X0163201Y0196150D02*
X0163201Y0199853D01*
X0161967Y0198619D01*
X0159518Y0199853D02*
X0159518Y0196150D01*
X0158284Y0198619D02*
X0159518Y0199853D01*
X0168284Y0198619D02*
X0169518Y0199853D01*
X0169518Y0196150D01*
X0168284Y0196150D02*
X0170752Y0196150D01*
X0171967Y0196767D02*
X0174436Y0199236D01*
X0174436Y0196767D01*
X0173818Y0196150D01*
X0172584Y0196150D01*
X0171967Y0196767D01*
X0171967Y0199236D01*
X0172584Y0199853D01*
X0173818Y0199853D01*
X0174436Y0199236D01*
X0179967Y0199236D02*
X0179967Y0198619D01*
X0180584Y0198002D01*
X0182436Y0198002D01*
X0182436Y0199236D02*
X0181818Y0199853D01*
X0180584Y0199853D01*
X0179967Y0199236D01*
X0182436Y0199236D02*
X0182436Y0196767D01*
X0181818Y0196150D01*
X0180584Y0196150D01*
X0179967Y0196767D01*
X0189967Y0196767D02*
X0189967Y0197384D01*
X0190584Y0198002D01*
X0191818Y0198002D01*
X0192436Y0197384D01*
X0192436Y0196767D01*
X0191818Y0196150D01*
X0190584Y0196150D01*
X0189967Y0196767D01*
X0190584Y0198002D02*
X0189967Y0198619D01*
X0189967Y0199236D01*
X0190584Y0199853D01*
X0191818Y0199853D01*
X0192436Y0199236D01*
X0192436Y0198619D01*
X0191818Y0198002D01*
X0205967Y0196767D02*
X0205967Y0196150D01*
X0205967Y0196767D02*
X0208436Y0199236D01*
X0208436Y0199853D01*
X0205967Y0199853D01*
X0215967Y0198002D02*
X0215967Y0196767D01*
X0216584Y0196150D01*
X0217818Y0196150D01*
X0218436Y0196767D01*
X0218436Y0197384D01*
X0217818Y0198002D01*
X0215967Y0198002D01*
X0217201Y0199236D01*
X0218436Y0199853D01*
X0225967Y0199853D02*
X0225967Y0198002D01*
X0227201Y0198619D01*
X0227818Y0198619D01*
X0228436Y0198002D01*
X0228436Y0196767D01*
X0227818Y0196150D01*
X0226584Y0196150D01*
X0225967Y0196767D01*
X0225967Y0199853D02*
X0228436Y0199853D01*
X0235967Y0198002D02*
X0238436Y0198002D01*
X0237818Y0199853D02*
X0237818Y0196150D01*
X0235967Y0198002D02*
X0237818Y0199853D01*
X0245967Y0199236D02*
X0246584Y0199853D01*
X0247818Y0199853D01*
X0248436Y0199236D01*
X0248436Y0198619D01*
X0247818Y0198002D01*
X0248436Y0197384D01*
X0248436Y0196767D01*
X0247818Y0196150D01*
X0246584Y0196150D01*
X0245967Y0196767D01*
X0247201Y0198002D02*
X0247818Y0198002D01*
X0255967Y0199236D02*
X0256584Y0199853D01*
X0257818Y0199853D01*
X0258436Y0199236D01*
X0258436Y0198619D01*
X0255967Y0196150D01*
X0258436Y0196150D01*
X0265967Y0196150D02*
X0268436Y0196150D01*
X0267201Y0196150D02*
X0267201Y0199853D01*
X0265967Y0198619D01*
X0275967Y0199236D02*
X0275967Y0196767D01*
X0278436Y0199236D01*
X0278436Y0196767D01*
X0277818Y0196150D01*
X0276584Y0196150D01*
X0275967Y0196767D01*
X0275967Y0199236D02*
X0276584Y0199853D01*
X0277818Y0199853D01*
X0278436Y0199236D01*
X0260812Y0210767D02*
X0260812Y0213236D01*
X0260194Y0213853D01*
X0258960Y0213853D01*
X0258343Y0213236D01*
X0258343Y0210767D01*
X0258960Y0210150D01*
X0260194Y0210150D01*
X0260812Y0210767D01*
X0257128Y0213853D02*
X0254660Y0210150D01*
X0253439Y0210150D02*
X0252204Y0210150D01*
X0252821Y0210150D02*
X0252821Y0213853D01*
X0252204Y0213853D02*
X0253439Y0213853D01*
X0246683Y0213853D02*
X0246683Y0210150D01*
X0246066Y0210150D02*
X0247300Y0210150D01*
X0244851Y0210150D02*
X0244851Y0212002D01*
X0244234Y0212619D01*
X0243000Y0212619D01*
X0243000Y0211384D02*
X0242383Y0210767D01*
X0243000Y0210150D01*
X0244851Y0210150D01*
X0244851Y0211384D02*
X0243000Y0211384D01*
X0241162Y0210150D02*
X0240544Y0210767D01*
X0240544Y0213236D01*
X0239927Y0212619D02*
X0241162Y0212619D01*
X0238089Y0212619D02*
X0238089Y0210150D01*
X0237472Y0210150D02*
X0238706Y0210150D01*
X0236257Y0210150D02*
X0234406Y0210150D01*
X0233789Y0210767D01*
X0233789Y0212002D01*
X0234406Y0212619D01*
X0236257Y0212619D01*
X0236257Y0209533D01*
X0235640Y0208916D01*
X0235023Y0208916D01*
X0232568Y0210150D02*
X0231333Y0210150D01*
X0231950Y0210150D02*
X0231950Y0212619D01*
X0231333Y0212619D01*
X0230119Y0213236D02*
X0229502Y0213853D01*
X0227650Y0213853D01*
X0227650Y0210150D01*
X0229502Y0210150D01*
X0230119Y0210767D01*
X0230119Y0213236D01*
X0231950Y0213853D02*
X0231950Y0214470D01*
X0237472Y0212619D02*
X0238089Y0212619D01*
X0238089Y0213853D02*
X0238089Y0214470D01*
X0246066Y0213853D02*
X0246683Y0213853D01*
X0184812Y0213236D02*
X0184812Y0210767D01*
X0184194Y0210150D01*
X0182960Y0210150D01*
X0182343Y0210767D01*
X0182343Y0213236D01*
X0182960Y0213853D01*
X0184194Y0213853D01*
X0184812Y0213236D01*
X0181128Y0213853D02*
X0178660Y0210150D01*
X0177439Y0210150D02*
X0176204Y0210150D01*
X0176821Y0210150D02*
X0176821Y0213853D01*
X0176204Y0213853D02*
X0177439Y0213853D01*
X0170683Y0213853D02*
X0170683Y0210150D01*
X0170066Y0210150D02*
X0171300Y0210150D01*
X0168851Y0210150D02*
X0167000Y0210150D01*
X0166383Y0210767D01*
X0167000Y0211384D01*
X0168851Y0211384D01*
X0168851Y0212002D02*
X0168851Y0210150D01*
X0168851Y0212002D02*
X0168234Y0212619D01*
X0167000Y0212619D01*
X0165162Y0212619D02*
X0163927Y0212619D01*
X0164544Y0213236D02*
X0164544Y0210767D01*
X0165162Y0210150D01*
X0162706Y0210150D02*
X0161472Y0210150D01*
X0162089Y0210150D02*
X0162089Y0212619D01*
X0161472Y0212619D01*
X0160257Y0212619D02*
X0158406Y0212619D01*
X0157789Y0212002D01*
X0157789Y0210767D01*
X0158406Y0210150D01*
X0160257Y0210150D01*
X0160257Y0209533D02*
X0160257Y0212619D01*
X0162089Y0213853D02*
X0162089Y0214470D01*
X0160257Y0209533D02*
X0159640Y0208916D01*
X0159023Y0208916D01*
X0156568Y0210150D02*
X0155333Y0210150D01*
X0155950Y0210150D02*
X0155950Y0212619D01*
X0155333Y0212619D01*
X0154119Y0213236D02*
X0154119Y0210767D01*
X0153502Y0210150D01*
X0151650Y0210150D01*
X0151650Y0213853D01*
X0153502Y0213853D01*
X0154119Y0213236D01*
X0155950Y0213853D02*
X0155950Y0214470D01*
X0170066Y0213853D02*
X0170683Y0213853D01*
X0127952Y0194916D02*
X0127335Y0194916D01*
X0122812Y0196150D02*
X0122812Y0199236D01*
X0123429Y0199853D01*
X0123429Y0198002D02*
X0122195Y0198002D01*
X0120980Y0198002D02*
X0120980Y0197384D01*
X0118511Y0197384D01*
X0118511Y0196767D02*
X0118511Y0198002D01*
X0119129Y0198619D01*
X0120363Y0198619D01*
X0120980Y0198002D01*
X0120363Y0196150D02*
X0119129Y0196150D01*
X0118511Y0196767D01*
X0117297Y0196150D02*
X0116063Y0197384D01*
X0116680Y0197384D02*
X0114828Y0197384D01*
X0114828Y0196150D02*
X0114828Y0199853D01*
X0116680Y0199853D01*
X0117297Y0199236D01*
X0117297Y0198002D01*
X0116680Y0197384D01*
X0113614Y0198002D02*
X0111145Y0198002D01*
X0111145Y0198619D02*
X0112380Y0199853D01*
X0113614Y0198619D01*
X0113614Y0196150D01*
X0111145Y0196150D02*
X0111145Y0198619D01*
M02*
