%
M48
M72
T01C0.02362
T02C0.03200
T03C0.03543
T04C0.03937
T05C0.04000
T06C0.12598
%
T01
X92000Y100000
T02
X212000Y120000
X222000Y120000
X162000Y120000
X172000Y120000
X262000Y120000
X272000Y120000
T03
X172000Y85000
X172000Y45000
X222000Y85000
X222000Y45000
X272000Y85000
X272000Y45000
T04
X237000Y205000
X227000Y15000
X247000Y205000
X257000Y205000
X267000Y205000
X277000Y205000
X227000Y205000
X217000Y205000
X207000Y205000
X191000Y205000
X181000Y205000
X171000Y205000
X161000Y205000
X151000Y205000
X141000Y205000
X131000Y205000
X121000Y205000
X237000Y15000
X247000Y15000
X257000Y15000
X267000Y15000
X277000Y15000
X207000Y15000
X197000Y15000
X187000Y15000
X177000Y15000
X167000Y15000
X157000Y15000
T05
X72000Y65000
X62000Y65000
X52000Y65000
X72000Y115000
X62000Y115000
X52000Y115000
T06
X87000Y205000
X287000Y145000
X82000Y15000
M30
